<svg xmlns="http://www.w3.org/2000/svg" width="48" height="26" viewBox="0 0 48 26"><defs><style>.a,.b{fill:#fff;}.a{opacity:0;}</style></defs><g transform="translate(-1110 -851)"><rect class="a" width="48" height="26" transform="translate(1110 851)"/><path class="b" d="M-524.068,865.992q3.648-3.652,7.3-7.3a2.186,2.186,0,0,1,.355-.307.753.753,0,0,1,.966.119.712.712,0,0,1,.05.967,3.936,3.936,0,0,1-.4.43c-1.863,1.865-5.847,5.868-6.058,6.095.366,0,20.3,0,30.012,0a3.176,3.176,0,0,1,.757.071.681.681,0,0,1,.54.664.681.681,0,0,1-.54.664,3.176,3.176,0,0,1-.757.071c-9.716,0-29.646,0-30.012,0,.211.227,4.195,4.229,6.058,6.095a3.93,3.93,0,0,1,.4.43.712.712,0,0,1-.05.967.753.753,0,0,1-.966.119,2.186,2.186,0,0,1-.355-.307q-3.652-3.65-7.3-7.3a1.387,1.387,0,0,1-.482-.739A1.387,1.387,0,0,1-524.068,865.992Z" transform="translate(1641.55 -2.731)"/></g></svg>