<svg xmlns="http://www.w3.org/2000/svg" width="42" height="42" viewBox="0 0 42 42"><defs><style>.a{fill:#fff;opacity:0;}.b{fill:#036;}</style></defs><g transform="translate(-22 -739)"><rect class="a" width="42" height="42" transform="translate(22 739)"/><g transform="translate(1112.211 -417.727)"><path class="b" d="M-1069.213,1187.935a10.172,10.172,0,0,1-10.177-9.41,10.163,10.163,0,0,1,9.39-10.977,10.184,10.184,0,0,1,10.965,9.384,9.847,9.847,0,0,1-2.687,7.725A9.978,9.978,0,0,1-1069.213,1187.935Zm.022-12.939h-3.625c-.289,0-.319.015-.348.306-.058.564-.113,1.13-.141,1.7a13.521,13.521,0,0,0,0,1.364c.031.609.087,1.217.146,1.824.025.252.061.272.313.272h7.27c.245,0,.289-.033.316-.272.053-.473.125-.946.135-1.421a20.839,20.839,0,0,0-.123-3.424c-.046-.319-.065-.346-.383-.346Zm-.044-1.36h3.22c.071,0,.142,0,.213,0,.18-.012.214-.052.166-.23a9.688,9.688,0,0,0-1.354-3.089,3.975,3.975,0,0,0-1.176-1.159,1.884,1.884,0,0,0-2.021-.043,3.213,3.213,0,0,0-.9.748,8.949,8.949,0,0,0-1.708,3.542c-.05.186-.013.223.187.231.064,0,.128,0,.192,0Zm.02,8.185q-1.674,0-3.348,0c-.252,0-.282.036-.217.275a10.115,10.115,0,0,0,1.11,2.69,4.352,4.352,0,0,0,1.393,1.5,1.9,1.9,0,0,0,2.132,0,3.758,3.758,0,0,0,1.03-.977,9.42,9.42,0,0,0,1.48-3.26c.048-.178.013-.217-.169-.228-.064,0-.128,0-.192,0Zm6.874-1.362c.454,0,.909,0,1.363,0a.252.252,0,0,0,.29-.216c.015-.069.038-.137.057-.2a9.023,9.023,0,0,0,.3-2.571,8.84,8.84,0,0,0-.345-2.224c-.065-.229-.092-.248-.328-.248q-1.341,0-2.684,0c-.249,0-.279.033-.245.272a17.312,17.312,0,0,1,.152,2.463,17.483,17.483,0,0,1-.15,2.441c-.036.256-.008.285.251.286C-1063.236,1180.462-1062.789,1180.46-1062.341,1180.459Zm-13.718-5.463h-1.237c-.388,0-.385,0-.489.376a9.113,9.113,0,0,0-.307,2.615,8.813,8.813,0,0,0,.345,2.226c.064.228.091.246.33.246q1.332,0,2.665,0c.266,0,.289-.022.255-.279a18.833,18.833,0,0,1-.146-2.466,18.656,18.656,0,0,1,.147-2.444c.033-.247.008-.272-.241-.273C-1075.178,1174.994-1075.618,1175-1076.059,1175Zm14.686,6.842c-.1-.007-.172-.017-.248-.017q-1.14,0-2.279,0c-.3,0-.322.019-.388.306a11.336,11.336,0,0,1-1.546,3.626c-.037.058-.069.118-.11.188C-1064.743,1185.868-1061.814,1183.243-1061.373,1181.838Zm-4.577-12.324c.048.078.089.141.127.206.22.381.461.752.655,1.146a11.085,11.085,0,0,1,.891,2.5c.053.24.088.266.332.267q1.183,0,2.365,0a1.673,1.673,0,0,0,.2-.025C-1061.8,1172.231-1064.729,1169.6-1065.95,1169.514Zm-11.14,4.1c.126.011.2.024.275.024h2.3c.283,0,.309-.022.373-.3a11.312,11.312,0,0,1,1.555-3.645c.035-.055.066-.113.1-.17l-.05-.04A8.964,8.964,0,0,0-1077.09,1173.611Zm4.567,12.359.038-.042c-.039-.064-.081-.127-.119-.193-.209-.362-.437-.716-.624-1.089a10.954,10.954,0,0,1-.916-2.538c-.059-.264-.089-.287-.36-.287q-1.161,0-2.322,0c-.073,0-.146.015-.255.027a8.746,8.746,0,0,0,2.253,2.765A8.351,8.351,0,0,0-1072.523,1185.97Z"/></g></g></svg>