<svg xmlns="http://www.w3.org/2000/svg" width="64" height="64" viewBox="0 0 64 64"><defs><style>.a{isolation:isolate;}.b{fill:#fff;opacity:0;}.c{fill:#036;}</style></defs><g class="a" transform="translate(512.04 -598.941)"><rect class="b" width="64" height="64" transform="translate(-512.04 598.941)"/><g transform="translate(-508.04 601.941)"><path class="c" d="M-496.9,644.712h-1.853c-2.22,0-4.44.01-6.659,0a3.274,3.274,0,0,1-3.6-3.475q-.056-8.016,0-16.033a3.246,3.246,0,0,1,3.566-3.5c2.518-.027,5.036-.006,7.554-.01.98,0,.987-.007.987-.967q0-6.928,0-13.855a4.718,4.718,0,0,1,1.373-3.681,4.22,4.22,0,0,1,2.948-1.233c7.189-.013,14.379,0,21.568-.018a1.9,1.9,0,0,1,1.441.735q5.335,5.532,10.678,11.056c1.057,1.093,2.1,2.2,3.18,3.271a2.2,2.2,0,0,1,.674,1.679c-.011,11.81-.029,23.62.006,35.43a4.674,4.674,0,0,1-4.905,4.882c-10.7-.066-21.4-.026-32.1-.029-3.034,0-4.82-1.743-4.85-4.779C-496.927,651.085-496.9,647.984-496.9,644.712Zm39.659-25.2h-1.237q-6.112,0-12.224,0c-1.717,0-1.972-.247-1.973-1.917q0-6.185,0-12.37v-1a2.6,2.6,0,0,0-.351-.075q-9.69,0-19.379,0a2.144,2.144,0,0,0-2.288,2.32c-.029,4.849-.007,9.7-.024,14.547,0,.518.167.73.686.676a6.668,6.668,0,0,1,.7,0q8.4,0,16.8,0a3.887,3.887,0,0,1,2.541.659,3.5,3.5,0,0,1,1.327,2.949c-.01,5.179-.058,10.358.021,15.536a3.61,3.61,0,0,1-3.924,3.9c-5.663-.087-11.329-.028-16.994-.028H-494.7c0,3.4-.039,6.689.02,9.979a2.111,2.111,0,0,0,2.223,2.073c.265.011.53.007.795.007h31.3c.331,0,.663.007.993-.015a2.165,2.165,0,0,0,2.033-1.725,4.524,4.524,0,0,0,.079-.981q.006-16.823,0-33.645C-457.245,620.148-457.245,619.891-457.245,619.513Zm-33.657,23q7.206,0,14.412,0c1.276,0,1.6-.322,1.605-1.564q.007-7.769,0-15.538c0-1.2-.327-1.525-1.549-1.526q-14.412-.01-28.824,0c-1.228,0-1.573.363-1.574,1.617q-.009,7.67,0,15.34c0,1.348.336,1.671,1.718,1.672Q-498.008,642.521-490.9,642.516Zm20.636-37.382-.213.118q0,5.583,0,11.166c0,.891.011.9.949.9q4.963,0,9.926,0c.281,0,.562-.035,1.046-.068Z" transform="translate(509.04 -601.941)"/><path class="c" d="M-482.055,737.2c1.559,0,2.982-.06,4.4.016a3.321,3.321,0,0,1,3.163,2.432,6.559,6.559,0,0,1-.178,4.912,3.025,3.025,0,0,1-2.578,1.905c-1.413.129-2.842.094-4.263.135-.365.01-.545-.13-.544-.517C-482.052,743.153-482.055,740.225-482.055,737.2Zm1.986,7.74c.8,0,1.554.04,2.3-.011a1.427,1.427,0,0,0,1.432-1.273,17.132,17.132,0,0,0,.036-3.307,1.615,1.615,0,0,0-1.6-1.487c-.709-.068-1.424-.081-2.173-.121Z" transform="translate(487.423 -710.403)"/><path class="c" d="M-426.707,741.134c-.011,2.676-1.2,4.4-3.4,4.813-3.4.63-5.5-1.284-5.7-4.045a5.3,5.3,0,0,1,1.011-4.009,4.73,4.73,0,0,1,5.163-1.284,4.193,4.193,0,0,1,2.89,3.867C-426.721,740.74-426.713,741-426.707,741.134Zm-1.921.2a13.364,13.364,0,0,0-.177-1.461,2.337,2.337,0,0,0-2.067-1.851,2.379,2.379,0,0,0-2.673,1.417,4.34,4.34,0,0,0,.019,3.55,2.345,2.345,0,0,0,2.377,1.454,2.334,2.334,0,0,0,2.232-1.648A10.76,10.76,0,0,0-428.628,741.33Z" transform="translate(450.388 -709.731)"/><path class="c" d="M-375.592,743.082a3.519,3.519,0,0,1-2.8,2.889,4.342,4.342,0,0,1-4.265-1.249c-1.518-1.6-1.54-5.777.466-7.413a4.176,4.176,0,0,1,6.576,1.775c-.37.106-.737.2-1.1.317-.469.146-.734.048-1.023-.429a2.1,2.1,0,0,0-3.609.084,4.644,4.644,0,0,0,.017,4.381,2.039,2.039,0,0,0,3.527.059c.591-.985.591-.985,1.673-.609C-375.975,742.94-375.825,743-375.592,743.082Z" transform="translate(408.657 -709.751)"/></g></g></svg>