<svg xmlns="http://www.w3.org/2000/svg" width="42" height="42" viewBox="0 0 42 42"><defs><style>.a{fill:#036;}.b{fill:#fff;opacity:0;}</style></defs><g transform="translate(-22 -739)"><g transform="translate(0 -220.05)"><path class="a" d="M36.225,977.57h2.832v9.1H36.225Zm1.417-4.52A1.639,1.639,0,1,1,36,974.688a1.64,1.64,0,0,1,1.642-1.638"/><path class="a" d="M40.831,977.57h2.713v1.245h.037a2.972,2.972,0,0,1,2.677-1.47c2.863,0,3.391,1.883,3.391,4.333v4.989H46.823v-4.422c0-1.056-.02-2.413-1.469-2.413-1.472,0-1.7,1.149-1.7,2.336v4.5H40.831Z"/></g><rect class="b" width="42" height="42" transform="translate(22 739)"/></g></svg>