<svg xmlns="http://www.w3.org/2000/svg" width="276" height="59.26" viewBox="0 0 276 59.26"><defs><style>.a,.b{fill:#fff;}.a{opacity:0;}</style></defs><g transform="translate(1229.221 3591.293)"><rect class="a" width="276" height="58.159" transform="translate(-1229.221 -3591.293)"/><g transform="translate(-1229.221 -3590.189)"><g transform="translate(67.7 16.889)"><path class="b" d="M-999.243-3460.488a6.785,6.785,0,0,1-.757-.247c0-.069.008-.137.012-.2a6.707,6.707,0,0,1,.619-.339c3.024-1.273,2.8-4.933,1.417-6.523a6.34,6.34,0,0,0-3.262-1.954,17.546,17.546,0,0,0-5.8-.206c-1.545.1-3.092.2-4.639.246-.916.027-1.835-.05-2.753-.083-.269-.01-.485.057-.518.365a.44.44,0,0,0,.413.551c.152.02.305.028.457.044a2.582,2.582,0,0,1,2.545,2.3,5.615,5.615,0,0,1,.078,1.109q.008,6.3,0,12.606a5.622,5.622,0,0,1-.032.786,2.552,2.552,0,0,1-.715,1.713,9.547,9.547,0,0,1-1.069.578c-.155.1-.341.319-.327.468s.254.323.425.364a2.167,2.167,0,0,0,.715-.031,55.837,55.837,0,0,1,7.34-.146,28.586,28.586,0,0,0,4.054-.072,6.106,6.106,0,0,0,5.691-5.49,5.192,5.192,0,0,0-1.465-4.625A4.852,4.852,0,0,0-999.243-3460.488Zm-8.637-6.4a3.472,3.472,0,0,1,.03-.523c.16-1.043.45-1.369,1.5-1.506a5.117,5.117,0,0,1,5.583,2.855,5.375,5.375,0,0,1,.316,3.023,2.571,2.571,0,0,1-2.568,2.2c-.567.032-1.137.006-1.706.006v-.013c-.547,0-1.1.032-1.64-.007-1.114-.08-1.507-.518-1.511-1.634C-1007.886-3463.951-1007.883-3465.418-1007.881-3466.884Zm8.749,13.744a3.732,3.732,0,0,1-2.753,2.71,8.31,8.31,0,0,1-4.015.105,2.164,2.164,0,0,1-1.856-2.21c-.071-1.089-.115-2.179-.171-3.283.05-.863.078-1.736.156-2.605.073-.808.394-1.163,1.2-1.193a13.266,13.266,0,0,1,5.222.7,3.588,3.588,0,0,1,2.337,2.855A5.98,5.98,0,0,1-999.132-3453.141Z" transform="translate(1014.931 3470.1)"/></g><path class="b" d="M-1232.322-3531.27a29.114,29.114,0,0,0-27.9,29.641,29.112,29.112,0,0,0,29.862,28.481,29.069,29.069,0,0,0,28.281-30.347A29.065,29.065,0,0,0-1232.322-3531.27Zm1.21,57.379a28.344,28.344,0,0,1-28.339-28.885,28.38,28.38,0,0,1,28.279-27.769,28.4,28.4,0,0,1,28.373,28.6A28.377,28.377,0,0,1-1231.112-3473.891Z" transform="translate(1260.221 3531.293)"/><g transform="translate(193.35 16.951)"><path class="b" d="M-543.944-3465.3a1.739,1.739,0,0,0,.149-.826c-.078-1.067-.193-2.131-.3-3.2-.043-.427-.27-.579-.711-.55-1.308.088-2.618.185-3.927.192-3.366.019-6.733-.008-10.1-.015a1.335,1.335,0,0,0-.576.041.605.605,0,0,0-.267.441c-.006.116.155.293.284.353a1.7,1.7,0,0,0,.517.054,2.282,2.282,0,0,1,2.3,1.779,6.446,6.446,0,0,1,.106,1.3q.011,6.041,0,12.082c0,.568-.022,1.136-.037,1.7a2.289,2.289,0,0,1-1.586,2.441.621.621,0,0,0-.271.5c0,.1.263.27.419.284a4.01,4.01,0,0,0,.979-.051,36.077,36.077,0,0,1,5.568-.179c.544,0,1.089.1,1.634.1.142,0,.409-.2.4-.288a.715.715,0,0,0-.3-.489,1.74,1.74,0,0,0-.637-.127c-1.512-.217-2.218-.735-2.4-2.235-.21-1.749-.182-3.528-.237-5.294a7.924,7.924,0,0,1,.1-1.176.747.747,0,0,1,.755-.754c1.155-.021,2.313-.071,3.463,0a1.982,1.982,0,0,1,1.82,1.475c.108.331.193.669.288,1,.072.256.129.544.492.486s.334-.348.333-.614c0-.066,0-.132,0-.2q-.157-2.944-.314-5.889c-.012-.224-.01-.5-.307-.471a.732.732,0,0,0-.487.315c-.247.408-.42.861-.653,1.278a1.849,1.849,0,0,1-1.565,1.039c-.894.048-1.789.078-2.684.1s-1.179-.223-1.2-1.144c-.024-.875-.005-1.751-.005-2.626,0-.9-.018-1.795.005-2.692.021-.821.339-1.234,1.127-1.243a43.66,43.66,0,0,1,4.583.131,2.576,2.576,0,0,1,2.293,1.622,7.974,7.974,0,0,1,.188,1.214,1.574,1.574,0,0,0,.276.448C-544.263-3465.073-544.016-3465.146-543.944-3465.3Z" transform="translate(559.676 3469.877)"/></g><g transform="translate(150.564 17.647)"><path class="b" d="M-699.885-3448.53c-.151-.021-.3-.027-.457-.045a1.238,1.238,0,0,1-1.256-1.188,8.118,8.118,0,0,1-.11-1.3c.029-5.208.07-10.416.1-15.624a2.751,2.751,0,0,0-.165-.663,2.479,2.479,0,0,0-.591.2,8.348,8.348,0,0,1-3.282,1.243,6.242,6.242,0,0,0-1.023.214.525.525,0,0,0-.3.4c.013.138.209.278.353.377.077.054.213.021.321.032.8.081,1.211.347,1.28,1.142.12,1.388.108,2.787.145,4.182,0,.057-.052.116-.113.242-.406-.116-.816-.24-1.23-.35a5.909,5.909,0,0,0-6.482,1.812,8.064,8.064,0,0,0-1.761,7.358,4.791,4.791,0,0,0,4.592,3.8,6.415,6.415,0,0,0,4.46-1.585c.136-.111.285-.207.535-.386,0,.591,0,1.026,0,1.462,0,.583.04.609.585.456.755-.212,1.507-.44,2.274-.6.7-.146,1.429-.19,2.135-.329a.662.662,0,0,0,.375-.427C-699.431-3448.374-699.642-3448.5-699.885-3448.53Zm-4.944-4.749c0,.918-.012,1.836,0,2.754a1.407,1.407,0,0,1-.943,1.416,3.72,3.72,0,0,1-4.695-1.114,6.776,6.776,0,0,1-1.11-6.609,2.984,2.984,0,0,1,3.994-2.044,5.912,5.912,0,0,1,1.574.764,2.555,2.555,0,0,1,1.183,2.342C-704.856-3454.941-704.83-3454.109-704.83-3453.279Z" transform="translate(714.698 3467.355)"/></g><g transform="translate(208.602 24.538)"><path class="b" d="M-488.924-3430.176c-.325-.029-.652-.027-.977-.058a.739.739,0,0,1-.761-.743c-.039-.654-.1-1.307-.105-1.961-.005-3,.006-5.994.015-8.991,0-.3-.014-.547-.426-.424a14.3,14.3,0,0,1-3.895.411,1.185,1.185,0,0,0-.562.124.562.562,0,0,0-.235.406c0,.095.169.241.292.285a4.456,4.456,0,0,0,.64.12c.814.164,1.012.333,1.025,1.174.033,2.274.067,4.55.008,6.822-.057,2.2-1.815,2.866-3.437,2.544a1.938,1.938,0,0,1-1.7-1.67,16.572,16.572,0,0,1-.278-2.663c0-2.295.083-4.589.134-6.884.015-.673-.1-.774-.757-.63a8.609,8.609,0,0,1-1.083.245c-.869.075-1.744.083-2.613.161-.323.029-.783.023-.781.51,0,.5.453.359.751.4.886.111,1.126.362,1.124,1.277,0,.7-.055,1.4-.058,2.1-.007,1.748-.084,3.5.03,5.241a3.618,3.618,0,0,0,2.586,3.51,4.894,4.894,0,0,0,5.439-1.39c.169-.186.361-.353.586-.572a1.387,1.387,0,0,1,.136.37c0,.349-.042.7-.04,1.047,0,.572.141.708.658.569a13.047,13.047,0,0,1,3.7-.376,3.2,3.2,0,0,0,.649-.068c.3-.057.546-.194.492-.566C-488.411-3430.2-488.7-3430.155-488.924-3430.176Z" transform="translate(504.417 3442.385)"/></g><g transform="translate(101.364 24.418)"><path class="b" d="M-876.648-3430.095a.75.75,0,0,0-.313-.081,1.891,1.891,0,0,1-1.853-2.224c.026-1.6.015-3.195-.083-4.786a12.25,12.25,0,0,0-.5-2.556,3.067,3.067,0,0,0-1.695-1.985,5.128,5.128,0,0,0-5.905,1.068,3.788,3.788,0,0,1-.309.338c-.289.262-.449.216-.494-.187a13.037,13.037,0,0,1-.031-1.306c0-.312,0-.625,0-1.01a2.3,2.3,0,0,0-.347.13,11.461,11.461,0,0,1-3.756,1.471c-.212.05-.423.1-.631.172a.472.472,0,0,0-.388.528c.033.316.288.278.5.3.174.017.35,0,.525.011a.813.813,0,0,1,.869.723,4.449,4.449,0,0,1,.1.71c.008,2.406,0,4.813.008,7.22a1.385,1.385,0,0,1-.962,1.469.656.656,0,0,0-.287.143c-.087.105-.2.272-.166.373s.208.194.339.241a.724.724,0,0,0,.322-.031,17.931,17.931,0,0,1,5.353.05,2.754,2.754,0,0,0,.911,0,.61.61,0,0,0,.343-.4c.021-.078-.184-.273-.321-.326a4.944,4.944,0,0,0-.705-.138,1.853,1.853,0,0,1-1.53-1.438,4.577,4.577,0,0,1-.139-1.035c-.014-1.75-.009-3.5,0-5.252a2.637,2.637,0,0,1,.07-.647,2.707,2.707,0,0,1,3.391-1.792,3.008,3.008,0,0,1,2.164,2.549,12.294,12.294,0,0,1,.2,2.406c.019,1.312-.014,2.625-.042,3.936a1.392,1.392,0,0,1-.935,1.368,1.075,1.075,0,0,0-.339.189.331.331,0,0,0,.157.595,1.513,1.513,0,0,0,.451-.029,13.29,13.29,0,0,1,1.692-.174c1.068.023,2.133.14,3.2.186a5.235,5.235,0,0,0,1.162-.106.427.427,0,0,0,.232-.338C-876.4-3429.879-876.54-3430.011-876.648-3430.095Z" transform="translate(892.961 3442.823)"/></g><g transform="translate(245.225 24.424)"><path class="b" d="M-355.871-3430.171c-1.425-.335-1.747-.884-1.764-2.185-.017-1.247.032-2.5-.016-3.741a17.825,17.825,0,0,0-.293-2.794,3.619,3.619,0,0,0-2.108-2.889,5.11,5.11,0,0,0-5.816,1.211,5.487,5.487,0,0,1-.572.522c-.475-.93-.018-1.852-.264-2.754a4.649,4.649,0,0,0-.464.226,9.786,9.786,0,0,1-3.079,1.239,7.217,7.217,0,0,0-1.19.345.7.7,0,0,0-.289.5c-.01.071.269.188.424.27a.4.4,0,0,0,.195.013c.987-.051,1.209.258,1.34,1.277a4.09,4.09,0,0,1,.021.524c0,2.188-.01,4.375.007,6.564.007.864-.2,1.555-1.128,1.825-.228.066-.424.238-.3.481a.6.6,0,0,0,.478.2c.5-.025,1-.163,1.5-.152,1.284.029,2.568.115,3.852.176a5.721,5.721,0,0,0,1.044.013.534.534,0,0,0,.346-.381c.011-.113-.2-.285-.342-.364a1.612,1.612,0,0,0-.509-.11,1.863,1.863,0,0,1-1.7-1.573,6.022,6.022,0,0,1-.115-1.1c-.012-1.663-.009-3.326,0-4.988a3.056,3.056,0,0,1,.086-.776,2.388,2.388,0,0,1,2.063-1.771,2.641,2.641,0,0,1,2.708.926,4.037,4.037,0,0,1,.917,2.412c.057,1.856.033,3.715.017,5.572a1.405,1.405,0,0,1-.932,1.376c-.041.016-.1.016-.121.044-.121.158-.341.333-.326.483.029.3.312.309.568.264.086-.015.171-.037.258-.05a12.392,12.392,0,0,1,3.785-.071,10.887,10.887,0,0,0,1.694.1c.288,0,.7-.037.7-.432S-355.575-3430.1-355.871-3430.171Z" transform="translate(371.726 3442.8)"/></g><g transform="translate(130.565 25.024)"><path class="b" d="M-775.289-3429.11c-1,.215-1.577-.187-1.652-1.205-.042-.564,0-1.135.011-1.7.041-1.53.144-3.06.121-4.589-.031-2.093-.869-3.208-2.745-3.721a7.732,7.732,0,0,0-5.01.255,3.129,3.129,0,0,0-2.153,2.643c-.071.543.041.742.6.745a6.275,6.275,0,0,0,1.3-.109c.874-.182,1.05-.465.957-1.369a1.158,1.158,0,0,1,1-1.437,2.2,2.2,0,0,1,2,.586,3.8,3.8,0,0,1,1.021,3.2c-.067.786-.108.747-.881.932a39.978,39.978,0,0,0-3.914,1.045,3.694,3.694,0,0,0-2.506,4.011,2.5,2.5,0,0,0,2.6,2.485,5.642,5.642,0,0,0,1.36-.154,11.891,11.891,0,0,0,3.464-1.6c.173.246.336.5.523.74a2.117,2.117,0,0,0,2.552.809,12.5,12.5,0,0,0,1.788-.941.537.537,0,0,0,.227-.779C-774.842-3429.214-775.064-3429.159-775.289-3429.11Zm-4.6-2.956c-.042.454-.088,1.084-.162,1.709a1.23,1.23,0,0,1-.868,1.057,5.042,5.042,0,0,1-1.325.3,1.452,1.452,0,0,1-1.644-1.4,3.519,3.519,0,0,1,3.484-3.731c.366.018.509.18.513.513C-779.886-3433.16-779.89-3432.7-779.89-3432.066Z" transform="translate(787.16 3440.626)"/></g><g transform="translate(88.878 25.04)"><path class="b" d="M-926.279-3429.072a1.271,1.271,0,0,1-1.761-1.32c-.024-.567.025-1.136.036-1.7.032-1.659.118-3.319.076-4.975a3.056,3.056,0,0,0-2.243-3.049,9.4,9.4,0,0,0-2.171-.425,6.851,6.851,0,0,0-4.085.931,2.976,2.976,0,0,0-1.36,2.407c-.047.347.115.565.464.567a8.244,8.244,0,0,0,1.3-.075c.934-.144,1.158-.444,1.122-1.4,0-.087,0-.175,0-.262a1.083,1.083,0,0,1,1.1-1.2,2.384,2.384,0,0,1,2.43,1.328,4.291,4.291,0,0,1,.445,2.476c-.065.771-.073.74-.811.92a37.506,37.506,0,0,0-3.973,1.064c-2.113.77-2.693,2.459-2.439,4.4a2.36,2.36,0,0,0,2.092,2.042,4.143,4.143,0,0,0,2.254-.243c1.027-.418,2.023-.911,3.073-1.39.183.25.37.547.6.809a2.084,2.084,0,0,0,2.484.65,9.357,9.357,0,0,0,1.666-.9c.186-.12.406-.461.355-.619C-925.742-3429.4-926.05-3429.126-926.279-3429.072Zm-4.789-1.419a1.414,1.414,0,0,1-.922,1.246,4.445,4.445,0,0,1-.619.205c-2.015.485-2.544-.849-2.356-2.239a3.7,3.7,0,0,1,3.444-2.806c.431.008.59.187.584.586,0,.371,0,.743,0,1.114l.019,0C-930.967-3431.751-931-3431.12-931.067-3430.491Z" transform="translate(938.198 3440.566)"/></g><g transform="translate(262.264 25.021)"><path class="b" d="M-300.111-3440.111a7.267,7.267,0,0,0-7.926,1.645,6.628,6.628,0,0,0-.45,8.889,6.815,6.815,0,0,0,6.029,2.2,6.721,6.721,0,0,0,6.2-6.8A6.073,6.073,0,0,0-300.111-3440.111Zm.5,10.13a3.006,3.006,0,0,1-4.93.847,7,7,0,0,1-1.979-3.549,8.82,8.82,0,0,1-.023-4.531,4.648,4.648,0,0,1,.455-1.079,2.83,2.83,0,0,1,4.127-.949,6,6,0,0,1,2.356,3.44,28.716,28.716,0,0,1,.6,3A6.953,6.953,0,0,1-299.613-3429.981Z" transform="translate(309.99 3440.637)"/></g><g transform="translate(177.307 17.434)"><path class="b" d="M-610.659-3448.479c-1.582-.333-1.916-.712-2.035-2.314-.01-.13-.03-.261-.029-.392.073-5.446-.174-10.9.152-16.34a2.128,2.128,0,0,0-.145-.6,2.542,2.542,0,0,0-.595.187,10.18,10.18,0,0,1-3.16,1.22c-.277.061-.55.137-.827.2s-.524.122-.506.478c.017.338.268.348.515.369a1.284,1.284,0,0,1,1.26,1.2,12.334,12.334,0,0,1,.18,1.755c.016,3.721.011,7.442,0,11.163,0,.5-.044,1-.08,1.506a1.742,1.742,0,0,1-1.069,1.6c-.251.111-.533.259-.376.563.068.133.4.208.595.186a27.279,27.279,0,0,1,5.826.016,1.141,1.141,0,0,0,.455.024c.148-.04.352-.2.365-.328s-.166-.287-.284-.41C-610.465-3448.456-610.574-3448.461-610.659-3448.479Z" transform="translate(617.805 3468.125)"/></g><g transform="translate(165.706 24.988)"><path class="b" d="M-648.757-3430.976a5.311,5.311,0,0,0-.64.558,4.125,4.125,0,0,1-4.974.435,5.173,5.173,0,0,1-2.313-4.332c-.009-.682.1-.779.805-.782,1.094,0,2.187,0,3.28,0v-.022q1.705,0,3.411,0c.709,0,.882-.187.854-.906a3.966,3.966,0,0,0-.771-2.054,5.412,5.412,0,0,0-8.957-.563,7.2,7.2,0,0,0-1.054,7.92,5.132,5.132,0,0,0,3.353,3.013c3.112.941,5.687-.516,7.37-2.572a.548.548,0,0,0,.145-.287c0-.14-.011-.336-.1-.407A.438.438,0,0,0-648.757-3430.976Zm-7.043-8.184a2.1,2.1,0,0,1,2.783-.411,3.051,3.051,0,0,1,1.532,2.455c.048.709-.181,1-.919,1.055-.586.044-1.178.009-1.767.009v.068c-.675,0-1.351,0-2.026,0-.461,0-.594-.25-.581-.673A3.762,3.762,0,0,1-655.8-3439.16Z" transform="translate(659.835 3440.756)"/></g><g transform="translate(117.829 25.026)"><path class="b" d="M-822.533-3430.312c-.485.247-.938.566-1.437.774a3.948,3.948,0,0,1-5.324-1.805,8.386,8.386,0,0,1-1-4.081,4.8,4.8,0,0,1,1.284-3.48,2.223,2.223,0,0,1,3.275-.016,3.1,3.1,0,0,1,.948,1.96c.072.6.3.735.83.446a16.746,16.746,0,0,0,1.544-.984.809.809,0,0,0,.258-1.1,2.989,2.989,0,0,0-2.1-1.805,7.628,7.628,0,0,0-4.325.223,6.982,6.982,0,0,0-4.664,7.578,5.55,5.55,0,0,0,4.366,5.113,7,7,0,0,0,6.545-2,.89.89,0,0,0,.272-.361,2.2,2.2,0,0,0,.018-.552A1.776,1.776,0,0,0-822.533-3430.312Z" transform="translate(833.303 3440.617)"/></g><g transform="translate(225.266 25.023)"><path class="b" d="M-433.4-3430.243c-.464.241-.909.527-1.392.721a3.893,3.893,0,0,1-5.117-1.618,7.319,7.319,0,0,1-1.1-3.658,5.354,5.354,0,0,1,.906-3.736,2.337,2.337,0,0,1,4.068.169,6.357,6.357,0,0,1,.508,1.535c.128.438.314.567.7.357a13.754,13.754,0,0,0,1.557-.961c.527-.383.565-.7.287-1.307a2.845,2.845,0,0,0-1.991-1.659,7.5,7.5,0,0,0-4.694.33,6.975,6.975,0,0,0-4.375,6.9,5.748,5.748,0,0,0,5.277,5.821,7.351,7.351,0,0,0,5.657-2.121.8.8,0,0,0,.265-1.051C-433.037-3430.426-433.222-3430.337-433.4-3430.243Z" transform="translate(444.038 3440.63)"/></g><g transform="translate(237.329 24.531)"><path class="b" d="M-393.519-3429.876a1.682,1.682,0,0,1-1.7-1.592,6.326,6.326,0,0,1-.1-1.107c-.007-3.065,0-6.129-.005-9.193,0-.184-.022-.369-.039-.643a2.494,2.494,0,0,0-.372.145,9.959,9.959,0,0,1-3.8,1.5,1,1,0,0,0-.48.194,2.163,2.163,0,0,0-.318.5,1.473,1.473,0,0,0,.465.219c1.044.074,1.381.361,1.4,1.4.04,2.187.066,4.375.042,6.562a2.074,2.074,0,0,1-1.2,2.208c-.134.053-.191.3-.283.455.181.07.366.21.54.2.653-.045,1.3-.207,1.953-.2,1.112.01,2.222.123,3.334.176a3.682,3.682,0,0,0,.975-.057c.17-.038.3-.237.455-.364a2.3,2.3,0,0,0-.418-.332A1.44,1.44,0,0,0-393.519-3429.876Z" transform="translate(400.333 3442.411)"/></g><g transform="translate(238.657 17.398)"><path class="b" d="M-393.92-3463.648c.206.234.511.341.745.078.561-.63,1.086-1.292,1.617-1.948a.97.97,0,0,0,.11-.29c-.022-.1-.014-.208-.063-.268-.56-.691-1.116-1.387-1.7-2.056-.193-.22-.447-.121-.619.083-.518.615-1.034,1.233-1.535,1.862a.617.617,0,0,0,.016.839C-394.877-3464.778-394.409-3464.2-393.92-3463.648Z" transform="translate(395.522 3468.257)"/></g><g transform="translate(12.517 12.496)"><path class="b" d="M-1198.274-3452.842a16.6,16.6,0,0,0,16.558-16.958,16.568,16.568,0,0,0-16.891-16.212,16.572,16.572,0,0,0-16.257,16.969A16.6,16.6,0,0,0-1198.274-3452.842Zm13.552-20.571a5.446,5.446,0,0,0,.141-1.1c.058-.708.1-1.419.163-2.273,3.792,6.282,2.226,17.046-7.1,21.615a1.426,1.426,0,0,0-1.582-1.051,1.733,1.733,0,0,1-1.7-1.535.556.556,0,0,1,.389-.746,7.856,7.856,0,0,0,3.9-3.356,6.393,6.393,0,0,0,.83-2.464c.03-.257.083-.511.125-.766.955.125.951.126,1.2,1.008a5.02,5.02,0,0,0,.3.863,1.113,1.113,0,0,0,1.227.666,1.027,1.027,0,0,0,.827-1.161c0-1.53-.015-3.059-.017-4.588,0-.261.025-.523.047-.784.07-.815-.264-1.345-.9-1.428s-1.065.292-1.247,1.064a1.479,1.479,0,0,1-1.684,1.3.548.548,0,0,1-.408-.215,6.486,6.486,0,0,0-3.719-3.326,5.433,5.433,0,0,0,2.354-4.163c1.367.136,2.625.26,3.883.386a.639.639,0,0,1,.6.52c.105.445.189.9.275,1.345a1.052,1.052,0,0,0,.938.949A1.1,1.1,0,0,0-1184.722-3473.413Zm-7.894,18.368h-7.862a2.43,2.43,0,0,1,.452-.226,2.158,2.158,0,0,0,1.919-2.142c.016-.254.092-.394.376-.42.627-.058,1.251-.149,1.829-.221a7.218,7.218,0,0,0,.616,1.565,3.138,3.138,0,0,0,1.176.981C-1193.655-3455.289-1193.1-3455.267-1192.616-3455.045Zm5.594-9.906a5.626,5.626,0,0,1,.035,1.408l-.184.019c-.1-.345-.217-.687-.3-1.036a1.711,1.711,0,0,0-1.436-1.41c-.893-.169-.892-.206-.892-1.066a6.841,6.841,0,0,0,1.847-.806,6.7,6.7,0,0,0,1.046-1.755c-.028.591-.053,1.085-.076,1.58s-.059,1-.063,1.5C-1187.055-3466-1187.013-3465.473-1187.022-3464.951Zm1.38-8.7-.156.009a2.921,2.921,0,0,1-.108-.317c-.09-.4-.163-.812-.259-1.216a1.516,1.516,0,0,0-1.427-1.237,34.239,34.239,0,0,0-6.735-.3c-1.1.092-1.426.431-1.438,1.519a7.88,7.88,0,0,0,.008,1.115,1.192,1.192,0,0,1-.765,1.308,13.124,13.124,0,0,1-1.416.508c-.062-.926-.09-1.732-.18-2.53a4.025,4.025,0,0,0-.313-1.127,2.01,2.01,0,0,0-1.725-1.326c-.32-.031-.636-.1-.954-.155,0-.052-.008-.1-.013-.156a4.568,4.568,0,0,1,.679-.071c.983.041,1.965.151,2.946.143,3.563-.03,7.125-.09,10.688-.156.515-.009,1.028-.109,1.59-.172C-1185.366-3476.37-1185.5-3475.01-1185.642-3473.652Zm-16.523-3.7a1.41,1.41,0,0,0,1.374.97c1.2.131,1.666.632,1.756,1.854.051.695.009,1.4.009,2.144h-3.139Zm-.011-.381c0-.577-.009-1.155,0-1.732.006-.273.076-.5.43-.541a6.128,6.128,0,0,1,5.044,1.568c-.726,0-1.318.021-1.908-.006-.63-.029-1.256-.119-1.886-.152A1.53,1.53,0,0,0-1202.176-3477.73Zm16.585-1.011c-.553.066-1.062.158-1.576.183-1.44.071-2.881.111-4.322.174-.257.011-.44,0-.574-.286a6.291,6.291,0,0,0-4-3.239,14.447,14.447,0,0,0-5.239-.6c-1.954.09-3.908.147-5.863.219C-1201.188-3487.007-1190.832-3486.164-1185.591-3478.741Zm-21.958-2.692c2.534-.051,5.068-.1,7.6-.133a10.489,10.489,0,0,1,4.036.721,5.337,5.337,0,0,1,2.983,2.578c-.806,0-1.534.012-2.261-.013-.115,0-.244-.158-.335-.268a6.872,6.872,0,0,0-6.072-2.439c-1.112.066-1.516.519-1.522,1.634-.013,2.319-.008,4.639,0,6.958,0,.767.2.971.976.979,1.225.012,2.451.013,3.676,0a5.776,5.776,0,0,0,1.1-.136,3.426,3.426,0,0,0,2.932-3.5c.007-.239,0-.479,0-.793h1.864a4.033,4.033,0,0,1-1.469,2.987c-.428.369-.925.657-1.374,1-.14.109-.321.308-.3.438s.239.292.4.358c.3.12.63.174.943.267a5.462,5.462,0,0,1,3.773,4.649c.4,3.908-2.375,6.388-5.375,7.188a13.7,13.7,0,0,1-4.106.25c-1.179-.044-2.356-.164-3.535-.181s-2.356.053-3.534.082c-.213.005-.427,0-.641,0l-.035-.136a3.32,3.32,0,0,1,.415-.143,1.987,1.987,0,0,0,1.8-1.8,16.921,16.921,0,0,0,.242-2.54q.035-6.7,0-13.391a6.007,6.007,0,0,0-.788-3.33,1.855,1.855,0,0,0-1.653-.992,1,1,0,0,1-.245-.062l-.016-.117A2.585,2.585,0,0,1-1207.55-3481.433Zm-1.5.458a.954.954,0,0,0,1.114.776,1.094,1.094,0,0,1,1.033.656,4.845,4.845,0,0,1,.57,2.525q.018,6.894,0,13.787a15.157,15.157,0,0,1-.194,2.084c-.108.754-.377.988-1.132,1.149a2.325,2.325,0,0,0-.673.232.936.936,0,0,0-.468,1,.953.953,0,0,0,.774.867,2.248,2.248,0,0,0,.781.055,32.9,32.9,0,0,1,6.083.012c.7.024,1.392.064,2.124.1-.132,1.1-.276,1.275-1.209,1.531-.848.231-1.234.667-1.132,1.275s.562.868,1.479.848c1.528-.033,3.056-.053,4.583-.075.148,0,.3.024.53.044a15.564,15.564,0,0,1-16.978-7.084A15.7,15.7,0,0,1-1209.05-3480.974Z" transform="translate(1214.867 3486.015)"/></g><g transform="translate(3.327 18.134)"><path class="b" d="M-1241.925-3452.31c-.013-.413.013-.828-.005-1.241a2.7,2.7,0,0,0-.128-.528,1.882,1.882,0,0,0-.334.389c-.229.49-.338.548-.854.344a2.349,2.349,0,0,1-.471-.223,2.324,2.324,0,0,1-.034-2.129,1.054,1.054,0,0,1,1.6.15c.023.026.078.025.231.071.008-.239.032-.45.02-.659a7.792,7.792,0,0,1,.573-3.327,1.75,1.75,0,0,0,.016-.581,1.744,1.744,0,0,0-.407.307.663.663,0,0,1-.724.333c-1.043-.272-2.081-.565-3.165-.863.09-.119.1-.14.113-.146,1.586-.722,3.174-1.438,4.756-2.168a5.576,5.576,0,0,0,.693-.478c-.362-.135-.56-.215-.761-.282q-1.919-.65-3.84-1.3c-.338-.114-.658-.237-.7-.673-.01-.1-.129-.187-.2-.281-.1.094-.254.168-.293.283-.169.493-.321.993-.441,1.5a1.041,1.041,0,0,0,.079.437c.362-.266.64-.642.927-.649a8.641,8.641,0,0,1,2.973.821c-1.436.64-2.71,1.205-3.98,1.777-.386.174-.87.222-1.014.73-.119.419-.236.838-.33,1.263a.3.3,0,0,0,.132.257.288.288,0,0,0,.266-.1c.372-.753.977-.6,1.579-.411.811.252,1.617.523,2.423.791.41.136.948.216.965.743s-.48.72-.916.9q-2.059.836-4.11,1.692c-.264.11-.506.276-.878.483.334.191.529.318.737.417,1.257.6,2.51,1.215,3.779,1.792a3.015,3.015,0,0,1,1.47,1.088C-1241.911-3451.869-1241.917-3452.079-1241.925-3452.31Zm-2.7-1.632-1.7-.782,1.7-.672Z" transform="translate(1248.165 3465.59)"/></g><g transform="translate(9.312 31.942)"><path class="b" d="M-1226.482-3415.559h0s.006.01.01.014h0C-1226.473-3415.549-1226.478-3415.553-1226.482-3415.559Z" transform="translate(1226.483 3415.559)"/></g><g transform="translate(47.314 19.766)"><path class="b" d="M-1084.056-3458.361c-1.166.362-2.325.747-3.488,1.117a.68.68,0,0,1-.785-.149,1.971,1.971,0,0,0-.463-.233c.092.354.142.57.2.783.232.8.5,1.583.689,2.391.121.525.11,1.081.185,1.619.016.119.144.221.22.332.079-.106.216-.206.227-.318a.769.769,0,0,1,.747-.768c1.006-.127,2.013-.249,3.173-.391-.179.2-.245.285-.316.361-1.114,1.2-2.233,2.4-3.34,3.611a6.95,6.95,0,0,0-.5.73,5.012,5.012,0,0,0,.529.03q2.156-.166,4.312-.341a.844.844,0,0,1,.917.345c.055.09.189.132.287.2.058-.125.173-.254.165-.375-.032-.5-.088-1-.166-1.491a1.914,1.914,0,0,0-.216-.475,1.657,1.657,0,0,0-.21.419.771.771,0,0,1-.6.7,11.592,11.592,0,0,1-2.825.264c.12-.145.17-.212.227-.273q1.443-1.524,2.887-3.047c.237-.251.52-.479.463-.89s-.084-.826-.153-1.234c-.018-.1-.142-.191-.217-.287-.087.081-.248.161-.251.245-.023.736-.539.9-1.112.954-1.065.1-2.132.192-3.2.248a.876.876,0,0,1-.956-.784c-.1-.606,0-.837.612-1.046,1.2-.409,2.4-.786,3.614-1.152.146-.044.342.054.509.1.146.044.285.114.427.173a1.661,1.661,0,0,0,0-.491c-.19-.624-.4-1.241-.623-1.854-.038-.1-.175-.171-.349-.333a1.836,1.836,0,0,0-.108.553C-1083.463-3458.683-1083.662-3458.484-1084.056-3458.361Z" transform="translate(1088.792 3459.676)"/></g><g transform="translate(28.5 48.116)"><path class="b" d="M-1149.614-3352.312c-.173-1.012-.355-2.022-.5-3.038-.065-.461-.185-.982.465-1.2.072-.024.09-.209.134-.32a.834.834,0,0,0-.29-.09c-.26.022-.516.1-.776.11a.648.648,0,0,0-.67.509c-.061.21-.141.413-.209.62-.363,1.109-.724,2.218-1.116,3.417-.186-.272-.326-.46-.449-.66-.587-.946-1.178-1.89-1.75-2.846a.728.728,0,0,0-.869-.4c-.34.074-.694.087-1.03.17-.114.028-.194.191-.289.292a1.189,1.189,0,0,0,.316.181c.675.142.824.248.9.9.1.868.156,1.742.22,2.614a2.957,2.957,0,0,1,.009.975,3.386,3.386,0,0,1-.544.831c.048.027.108.091.163.087.628-.043,1.255-.089,1.88-.157a.29.29,0,0,0,.168-.232c-.008-.078-.127-.153-.209-.213-.219-.158-.566-.261-.646-.469a6.293,6.293,0,0,1-.264-2.446c.421.557.769,1.132,1.125,1.7.266.427.521.861.816,1.266.231.316.385.283.549-.073a3.359,3.359,0,0,0,.128-.37l1.038-3.158.115-.022c.134.8.265,1.592.4,2.387.055.317.07.606-.258.806a.3.3,0,0,0-.11.263.31.31,0,0,0,.243.169c.714-.076,1.428-.163,2.137-.277.112-.018.2-.192.3-.294-.1-.063-.2-.177-.309-.182C-1149.35-3351.481-1149.534-3351.848-1149.614-3352.312Z" transform="translate(1156.961 3356.958)"/></g><g transform="translate(4.148 31.648)"><path class="b" d="M-1238.719-3411.85c.012.012.076-.026.189-.067-.037-.189-.068-.4-.12-.6-.146-.57-.337-1.131-.441-1.708a4.257,4.257,0,0,0-.926-2.1,2.217,2.217,0,0,0-1.95-.146,1.434,1.434,0,0,0-.875,1.188,4.375,4.375,0,0,0-1.167-.2,1.325,1.325,0,0,0-1.16,1.625,34.4,34.4,0,0,0,.872,3.541c.024.09.192.142.293.212a1.125,1.125,0,0,0,.157-.322c.084-.674.138-.753.783-.919.907-.234,1.821-.444,2.724-.693C-1239.766-3412.186-1239.211-3412.372-1238.719-3411.85Zm-4.489-.694c-.127.031-.255.057-.382.088-.725.18-.916.033-.923-.708a1.2,1.2,0,0,1,.719-1.146c.621-.267.991-.1,1.2.554.013.042.031.082.042.125C-1242.327-3412.762-1242.327-3412.762-1243.208-3412.544Zm3.541-1.186c-.033.145-.26.29-.428.348-.41.142-.842.218-1.257.348-.3.093-.468,0-.538-.284s-.113-.552-.167-.828c0-.66.154-.968.631-1.189a1.191,1.191,0,0,1,1.339.16A1.562,1.562,0,0,1-1239.668-3413.73Z" transform="translate(1245.19 3416.627)"/></g><g transform="translate(15.672 45.977)"><path class="b" d="M-1198.756-3363.791c-.7-.291-1.4-.6-2.1-.888a1.433,1.433,0,0,0-.468-.021c.051.139.06.332.16.409a.785.785,0,0,1,.194,1.1c-.366.766-.7,1.546-1.062,2.315-.294.626-.4,1.425-1.4,1.438l.058.17a1.427,1.427,0,0,0,.285.233c.594.269,1.192.532,1.8.776a1.029,1.029,0,0,0,.4-.017c-.043-.128-.046-.315-.136-.376-.4-.273-.345-.621-.2-.984.136-.344.316-.67.444-1.017.106-.286.262-.288.5-.185.4.17.412.529.445.875.06.629.062,1.268.176,1.886a1.229,1.229,0,0,0,1.533.97.5.5,0,0,0,.281-.219c.025-.042-.067-.219-.139-.245-.456-.163-.53-.533-.559-.942-.034-.479-.056-.961-.12-1.436-.044-.326.057-.447.381-.538a1.5,1.5,0,0,0,.85-2.381A2.676,2.676,0,0,0-1198.756-3363.791Zm.051,2.554a.854.854,0,0,1-.643.168,6.206,6.206,0,0,1-1.037-.439c.264-.592.5-1.122.737-1.651.113-.252.307-.273.541-.188A1.3,1.3,0,0,1-1198.705-3361.237Z" transform="translate(1203.437 3364.709)"/></g><g transform="translate(18.326 4.442)"><path class="b" d="M-1193.4-3513.575a.7.7,0,0,1,.879.574c.356,1.145.72,2.287,1.067,3.435.081.267.158.548-.131.779-.071.056-.05.226-.072.343a1.023,1.023,0,0,0,.346.024c.771-.229,1.54-.469,2.307-.714a3.194,3.194,0,0,0,2.094-1.928,2.96,2.96,0,0,0-1.8-4.026,3.747,3.747,0,0,0-2.255.145c-.819.295-1.644.573-2.459.878a1.655,1.655,0,0,0-.4.316l.1.157A1.291,1.291,0,0,0-1193.4-3513.575Zm2.239-.727a2.249,2.249,0,0,1,2.6.655,3.311,3.311,0,0,1,.745,1.985,1.922,1.922,0,0,1-1.678,2.069.687.687,0,0,1-.857-.5c-.374-1.2-.739-2.413-1.128-3.613C-1191.589-3514.049-1191.443-3514.186-1191.165-3514.3Z" transform="translate(1193.821 3515.2)"/></g><g transform="translate(47.95 30.603)"><path class="b" d="M-1083.421-3420.411a3.022,3.022,0,0,0-3.069,3.275,3.293,3.293,0,0,0,3.355,3.162,3,3,0,0,0,2.93-3.2A3.107,3.107,0,0,0-1083.421-3420.411Zm2.685,3.118a1.794,1.794,0,0,1-.9,1.639,3.394,3.394,0,0,1-3.784-.426,1.659,1.659,0,0,1,.168-2.526,3.318,3.318,0,0,1,1.756-.59c.581.166,1.18.289,1.739.51A1.5,1.5,0,0,1-1080.736-3417.293Z" transform="translate(1086.49 3420.412)"/></g><g transform="translate(22.147 48.49)"><path class="b" d="M-1176.755-3355.6a3.087,3.087,0,0,0-3.221,3.212c-.058,1.626,1.081,3,3.268,3.062a3.233,3.233,0,0,0,3.138-3.359A2.928,2.928,0,0,0-1176.755-3355.6Zm1.068,5.282a1.646,1.646,0,0,1-2.538-.387,8.866,8.866,0,0,1-.553-1.621,12.28,12.28,0,0,1,.5-1.76,1.632,1.632,0,0,1,2.8-.378A3.292,3.292,0,0,1-1175.687-3350.323Z" transform="translate(1179.978 3355.605)"/></g><g transform="translate(25.527 3.463)"><path class="b" d="M-1166.661-3517.324q.055,1.6.109,3.207a1.2,1.2,0,0,1-.722,1.376,2.679,2.679,0,0,0,.607.191c.894,0,1.789,0,2.681-.04a2.408,2.408,0,0,0,.945-.2,1.119,1.119,0,0,0,.445-1.608,2.567,2.567,0,0,1-2.137,1.163c-.325,0-.515-.132-.544-.43a14.828,14.828,0,0,1-.063-1.5.429.429,0,0,1,.222-.324,1,1,0,0,1,1.361.589c.046.1.086.2.152.346a3.586,3.586,0,0,0,.006-2.377c-.042,0-.1-.008-.125.016-.109.129-.21.266-.31.4a1.344,1.344,0,0,1-1.244.333c-.226-.132-.251-1.8-.012-1.832a6,6,0,0,1,1.422-.03c.338.031.506.3.537.65.006.072.131.133.2.2.072-.091.2-.177.206-.272.018-.282-.021-.566-.021-.85,0-.344-.164-.442-.5-.428-1.2.053-2.4.079-3.6.124a6.65,6.65,0,0,0-.689.111c.225.192.326.352.44.362C-1166.759-3518.1-1166.675-3517.747-1166.661-3517.324Z" transform="translate(1167.73 3518.746)"/></g><g transform="translate(41.55 8.389)"><path class="b" d="M-1109.032-3497.557a2.169,2.169,0,0,0-.62,1.8,2.825,2.825,0,0,0,4.438,1.822,17.283,17.283,0,0,0,1.829-1.688,1.118,1.118,0,0,1,1.382-.421,2.287,2.287,0,0,0-.233-.5c-.337-.342-.683-.676-1.043-.993a1.141,1.141,0,0,0-.382-.137c.011.135-.026.305.042.4a.676.676,0,0,1-.01.954,25.8,25.8,0,0,1-2.178,2.076,1.525,1.525,0,0,1-2.262-.312,1.478,1.478,0,0,1-.029-2.176c.635-.719,1.344-1.374,2.021-2.056a.522.522,0,0,1,.641-.173c.11.048.27-.016.407-.029-.045-.137-.052-.311-.143-.4q-.709-.726-1.459-1.411c-.086-.078-.256-.066-.387-.1.006.135-.039.307.027.4a.671.671,0,0,1-.158,1.024c-.214.185-.394.409-.594.611C-1108.175-3498.429-1108.633-3498.019-1109.032-3497.557Z" transform="translate(1109.677 3500.899)"/></g><g transform="translate(37.667 46.657)"><path class="b" d="M-1119.349-3358.7q-1.706-1.483-3.43-2.944c-.224-.19-.475-.346-.831-.6,0,1.144.026,2.138-.007,3.131-.04,1.228.328,2.472-.127,3.687-.01.026.035.073.086.172.616-.283,1.237-.561,1.848-.86.054-.026.039-.194.058-.3a.8.8,0,0,0-.212-.058c-.9.037-1.008-.078-1-.943,0-.387.233-.534.515-.67a7.011,7.011,0,0,0,.766-.367c.438-.282.723-.062,1.029.23.279.267.571.5.293.938-.056.089-.02.237-.026.358a1.418,1.418,0,0,0,.4-.054c.574-.258,1.142-.529,1.7-.809a1.779,1.779,0,0,0,.322-.266c-.133-.078-.274-.232-.4-.221A1.274,1.274,0,0,1-1119.349-3358.7Zm-3.681.153v-1.793l1.334,1.161Z" transform="translate(1123.745 3362.246)"/></g><g transform="translate(12.029 9.761)"><path class="b" d="M-1215.116-3490.684a6.406,6.406,0,0,1,.114,1.067,3.308,3.308,0,0,0,.077.351,1.32,1.32,0,0,0,.393-.148c.37-.3.729-.619,1.076-.949a1.278,1.278,0,0,0,.19-.366,1.2,1.2,0,0,0-.452-.031c-.584.206-.7.165-.914-.412-.24-.641-.223-.711.3-1.183a4.538,4.538,0,0,0,.491-.432c.345-.417.713-.322,1.1-.094.338.2.745.342.518.884-.033.08.077.219.121.33a1.617,1.617,0,0,0,.32-.167q.749-.63,1.484-1.277a2.632,2.632,0,0,0,.268-.34c-.167-.051-.313-.15-.391-.112-.509.254-.934.006-1.366-.2-1.323-.617-2.641-1.246-3.965-1.86-.244-.113-.509-.178-.891-.309.049.277.057.385.088.486C-1216.07-3493.856-1215.576-3492.275-1215.116-3490.684Zm1.121-2.837-1.1.969-.574-1.759Z" transform="translate(1216.638 3495.927)"/></g><g transform="translate(36.904 5.769)"><path class="b" d="M-1126.226-3504.853c.568.322,1.142.634,1.727.926.1.051.262-.014.4-.025-.031-.111-.026-.274-.1-.323-.521-.346-.392-.771-.169-1.207a10.281,10.281,0,0,1,.549-.966.475.475,0,0,1,.347-.208,1.047,1.047,0,0,1,.9,1.185,1.478,1.478,0,0,0,.041.292c.147-.057.321-.069.363-.149.292-.567.557-1.148.83-1.725l-.156-.125c-.136.054-.275.1-.406.165a1.078,1.078,0,0,1-1.24-.214c-.29-.332.073-.564.2-.8.572-1.076.743-1.1,1.713-.3.282.232.507.487.307.9-.041.084.029.222.048.334.129-.05.315-.062.377-.156a5.963,5.963,0,0,0,.374-.761c.145-.306.017-.466-.265-.613-1.063-.553-2.112-1.135-3.173-1.691a1.468,1.468,0,0,0-.458-.074c.043.149.039.354.138.438a.6.6,0,0,1,.116.869c-.619,1.1-1.219,2.218-1.855,3.311-.1.179-.351.278-.538.405-.109.075-.23.134-.345.2A1.353,1.353,0,0,0-1126.226-3504.853Z" transform="translate(1126.509 3510.39)"/></g><g transform="translate(7.364 13.059)"><path class="b" d="M-1229.047-3477.653a3.034,3.034,0,0,0,1.523-3.543c-.071-.246-.06-.615-.456-.578a3.412,3.412,0,0,0-.051.688,1.511,1.511,0,0,0,.023.2,1.942,1.942,0,0,1-2.331,2.181,3.307,3.307,0,0,1-1.978-1.061,1.662,1.662,0,0,1,.831-2.92,7.906,7.906,0,0,1,1.418-.057.977.977,0,0,0,.321-.154c-.051-.092-.077-.224-.155-.269-.5-.292-1.015-.565-1.458-.808a3.364,3.364,0,0,1-.588.66,3.044,3.044,0,0,0-.808,4.721A3.128,3.128,0,0,0-1229.047-3477.653Z" transform="translate(1233.54 3483.978)"/></g><g transform="translate(45.696 15.157)"><path class="b" d="M-1092.214-3476.272a3.032,3.032,0,0,0-2.442,3,3.012,3.012,0,0,0,2.532,2.842,4.217,4.217,0,0,0,.845-.043c-.16-.208-.179-.259-.212-.272-.222-.086-.447-.163-.671-.245a1.914,1.914,0,0,1-1.1-2.9,3.221,3.221,0,0,1,1.864-1.457,1.7,1.7,0,0,1,1.842.275,1.717,1.717,0,0,1,.442,1.924c-.138.406-.383.775-.558,1.17a.883.883,0,0,0,0,.345.8.8,0,0,0,.3-.042c.354-.213.7-.444,1.042-.671.283-.187.653-.357.089-.673-.073-.04-.079-.229-.088-.35A3.008,3.008,0,0,0-1092.214-3476.272Z" transform="translate(1094.657 3476.376)"/></g><g transform="translate(30.768 3.586)"><path class="b" d="M-1148.5-3512.295c.234.047.479.04.713.087.812.163,1.616.365,2.431.505a1.235,1.235,0,0,0,1.393-1.531,1.251,1.251,0,0,0-.277.149,2.185,2.185,0,0,1-2.057.555c-.523-.078-.6-.144-.506-.68q.337-1.9.741-3.785c.036-.172.231-.316.369-.457a2.388,2.388,0,0,1,.324-.239,1.376,1.376,0,0,0-.4-.251q-.955-.207-1.922-.356c-.12-.019-.26.085-.39.132.076.115.133.306.231.33.6.146.587.562.5,1.022-.209,1.07-.431,2.137-.63,3.208-.074.4-.132.778-.618.89a.283.283,0,0,0-.143.241A.357.357,0,0,0-1148.5-3512.295Z" transform="translate(1148.743 3518.301)"/></g><g transform="translate(9.835 42.166)"><path class="b" d="M-1223.283-3378.518a1.26,1.26,0,0,0-1.305,1.313,1.306,1.306,0,0,0,1.313,1.331,1.323,1.323,0,0,0,1.315-1.334A1.281,1.281,0,0,0-1223.283-3378.518Z" transform="translate(1224.588 3378.518)"/></g><g transform="translate(45.372 42.562)"><path class="b" d="M-1094.469-3377.081a1.3,1.3,0,0,0-1.359,1.275,1.309,1.309,0,0,0,1.275,1.368,1.349,1.349,0,0,0,1.378-1.281A1.346,1.346,0,0,0-1094.469-3377.081Z" transform="translate(1095.829 3377.082)"/></g><g transform="translate(24.22 27.891)"><path class="b" d="M-1170.961-3419.111a11.519,11.519,0,0,0,4.3.233,4.877,4.877,0,0,0,4.293-2.976,6.1,6.1,0,0,0,.418-2.566,5.69,5.69,0,0,0-5.138-5.737c-1.523-.11-3.058-.08-4.588-.066-.593,0-.74.217-.743.841-.008,1.378,0,2.757,0,4.135h-.042c0,1.378,0,2.755,0,4.133A1.8,1.8,0,0,0-1170.961-3419.111Zm6.865-1.886v-3.82l1.129-.075A4.513,4.513,0,0,1-1164.1-3421Zm-3.154-8.434c.622.217,1.19.417,1.76.613.342.118.432.351.433.705,0,1.249.057,1.291,1.322,1.376.425.029.476.1.635.9-.368.03-.738.034-1.1.094-.68.113-.853.308-.861,1-.015,1.29,0,2.58-.005,3.87,0,.7,0,.714-.66.9-.479.132-.974.206-1.523.318Zm-4.251,7.963q.008-3.607.02-7.213c0-.636,0-.639.65-.641.826,0,1.652,0,2.539,0v9.551a5.861,5.861,0,0,1-2.73-.4,1.2,1.2,0,0,1-.446-.646A1.857,1.857,0,0,1-1171.5-3421.468Z" transform="translate(1172.466 3430.238)"/></g></g><g transform="translate(-1119.216 -3544.285)"><path class="b" d="M-856.2-3361.679v3.531h-.707a5.226,5.226,0,0,0-.22-.759,2.228,2.228,0,0,1-1.8.861,2.4,2.4,0,0,1-2.011-.924,3.779,3.779,0,0,1-.719-2.39,3.938,3.938,0,0,1,.767-2.536,2.526,2.526,0,0,1,2.083-.958,2.535,2.535,0,0,1,1.781.62,2.677,2.677,0,0,1,.827,1.649l-1.471.194q-.179-1.2-1.137-1.2a1.03,1.03,0,0,0-.951.568,3.341,3.341,0,0,0-.322,1.624,2.863,2.863,0,0,0,.348,1.553,1.116,1.116,0,0,0,.992.537,1.133,1.133,0,0,0,.743-.271,1.064,1.064,0,0,0,.327-.866h-1.243v-1.233Z" transform="translate(861.654 3364.887)"/><path class="b" d="M-836.311-3353.654h-1.4v-4.887h1.321v.91q.3-1.016,1.055-1.016.107,0,.261.014v1.423a1.426,1.426,0,0,0-.684.135.98.98,0,0,0-.4.486,2.383,2.383,0,0,0-.155.946Z" transform="translate(844.318 3360.393)"/><path class="b" d="M-821.071-3358.262v4.886h-1.335v-.832a1.42,1.42,0,0,1-1.442.934,1.47,1.47,0,0,1-.847-.206,1.132,1.132,0,0,1-.423-.561,3.176,3.176,0,0,1-.128-1.028v-3.193h1.4v3.193q0,.658.542.658a.76.76,0,0,0,.479-.157.7.7,0,0,0,.259-.336,2.34,2.34,0,0,0,.056-.614v-2.743Z" transform="translate(835.295 3360.115)"/><path class="b" d="M-805.806-3351.992v-6.536h1.326v.716a1.3,1.3,0,0,1,1.287-.818,1.587,1.587,0,0,1,1.3.636,2.923,2.923,0,0,1,.505,1.851,3.134,3.134,0,0,1-.51,1.948,1.607,1.607,0,0,1-1.328.656,1.239,1.239,0,0,1-1.18-.644v2.192Zm1.4-3.788a2.728,2.728,0,0,0,.063.716.735.735,0,0,0,.266.356.706.706,0,0,0,.44.157.663.663,0,0,0,.527-.3,2.475,2.475,0,0,0,.232-1.333q0-1.447-.764-1.447a.708.708,0,0,0-.527.256,1.273,1.273,0,0,0-.237.871Z" transform="translate(821.22 3360.381)"/><path class="b" d="M-786.436-3351.992v-6.536h1.326v.716a1.3,1.3,0,0,1,1.287-.818,1.587,1.587,0,0,1,1.3.636,2.922,2.922,0,0,1,.506,1.851,3.134,3.134,0,0,1-.51,1.948,1.607,1.607,0,0,1-1.328.656,1.238,1.238,0,0,1-1.18-.644v2.192Zm1.4-3.788a2.727,2.727,0,0,0,.063.716.735.735,0,0,0,.266.356.705.705,0,0,0,.44.157.662.662,0,0,0,.527-.3,2.474,2.474,0,0,0,.232-1.333q0-1.447-.764-1.447a.707.707,0,0,0-.527.256,1.273,1.273,0,0,0-.237.871Z" transform="translate(807.196 3360.381)"/><path class="b" d="M-765.778-3358.63a2.173,2.173,0,0,1,1.742.73,2.715,2.715,0,0,1,.626,1.829,2.6,2.6,0,0,1-.65,1.807,2.21,2.21,0,0,1-1.728.723,2.107,2.107,0,0,1-1.67-.716,2.691,2.691,0,0,1-.626-1.838,2.847,2.847,0,0,1,.283-1.323,2.35,2.35,0,0,1,.776-.878A2.173,2.173,0,0,1-765.778-3358.63Zm.039.944a.69.69,0,0,0-.618.317,2.566,2.566,0,0,0-.207,1.26,2.862,2.862,0,0,0,.2,1.243.653.653,0,0,0,.618.377.7.7,0,0,0,.593-.322,2.3,2.3,0,0,0,.227-1.227,2.9,2.9,0,0,0-.2-1.306A.66.66,0,0,0-765.739-3357.686Z" transform="translate(793.909 3360.381)"/><path class="b" d="M-738.633-3364.485h3.077a2.942,2.942,0,0,1,1.243.2,1.814,1.814,0,0,1,.687.58,1.532,1.532,0,0,1,.271.918,1.457,1.457,0,0,1-1.19,1.465,1.689,1.689,0,0,1,1.031.615,1.638,1.638,0,0,1,.343,1,1.72,1.72,0,0,1-.561,1.281,2.573,2.573,0,0,1-1.824.54h-3.077Zm1.543,1.166v1.446h1.171q.644,0,.811-.254a.891.891,0,0,0,.167-.486.7.7,0,0,0-.138-.433.587.587,0,0,0-.3-.228,2.913,2.913,0,0,0-.648-.046Zm0,2.622v1.592h1.188a1.341,1.341,0,0,0,.859-.213.738.738,0,0,0,.251-.595.74.74,0,0,0-.242-.552,1.134,1.134,0,0,0-.8-.232Z" transform="translate(772.587 3364.62)"/><path class="b" d="M-712.006-3353.641h-1.4a3.474,3.474,0,0,1-.068-.765,2.007,2.007,0,0,1-.732.694,1.915,1.915,0,0,1-.829.172,1.615,1.615,0,0,1-1.109-.373,1.267,1.267,0,0,1-.423-1,1.547,1.547,0,0,1,.246-.847,1.612,1.612,0,0,1,.792-.607,7.555,7.555,0,0,1,1.99-.327v-.281a.627.627,0,0,0-.709-.711.746.746,0,0,0-.844.711l-1.33-.125a1.512,1.512,0,0,1,.789-1.181,3.139,3.139,0,0,1,1.49-.348,3.67,3.67,0,0,1,.939.116,1.566,1.566,0,0,1,.687.348,1.219,1.219,0,0,1,.334.491,3.209,3.209,0,0,1,.087.9v2.216A3.365,3.365,0,0,0-712.006-3353.641Zm-1.529-2.342q-1.509.15-1.509.915a.659.659,0,0,0,.159.443.563.563,0,0,0,.453.186.793.793,0,0,0,.639-.317,1.2,1.2,0,0,0,.258-.781Z" transform="translate(756.609 3360.381)"/><path class="b" d="M-691.807-3353.641h-1.442v-2.743a3.927,3.927,0,0,0-.039-.682.549.549,0,0,0-.189-.312.559.559,0,0,0-.377-.128q-.76,0-.76,1.123v2.743h-1.442v-4.887h1.34v.827a1.868,1.868,0,0,1,.658-.76,1.5,1.5,0,0,1,.7-.169,1.634,1.634,0,0,1,1.122.375,1.939,1.939,0,0,1,.426,1.473Z" transform="translate(741.76 3360.381)"/><path class="b" d="M-672.791-3355.475a2.056,2.056,0,0,1-.684,1.4,2.256,2.256,0,0,1-1.555.535,2.222,2.222,0,0,1-1.686-.685,2.548,2.548,0,0,1-.651-1.831,2.619,2.619,0,0,1,.665-1.86,2.314,2.314,0,0,1,1.778-.714,2.115,2.115,0,0,1,1.483.537,1.964,1.964,0,0,1,.651,1.345l-1.345.078q-.067-.881-.764-.881-.857,0-.856,1.4a1.9,1.9,0,0,0,.24,1.185.775.775,0,0,0,.583.251q.668,0,.8-.847Z" transform="translate(728.231 3360.381)"/><path class="b" d="M-654.493-3353.641h-1.4a3.5,3.5,0,0,1-.068-.765,2.009,2.009,0,0,1-.732.694,1.915,1.915,0,0,1-.828.172,1.615,1.615,0,0,1-1.109-.373,1.267,1.267,0,0,1-.423-1,1.549,1.549,0,0,1,.246-.847,1.614,1.614,0,0,1,.792-.607,7.552,7.552,0,0,1,1.99-.327v-.281a.627.627,0,0,0-.709-.711.746.746,0,0,0-.844.711l-1.33-.125a1.512,1.512,0,0,1,.789-1.181,3.139,3.139,0,0,1,1.49-.348,3.67,3.67,0,0,1,.939.116,1.566,1.566,0,0,1,.687.348,1.215,1.215,0,0,1,.334.491,3.194,3.194,0,0,1,.087.9v2.216A3.38,3.38,0,0,0-654.493-3353.641Zm-1.529-2.342q-1.51.15-1.509.915a.657.657,0,0,0,.159.443.563.563,0,0,0,.453.186.794.794,0,0,0,.639-.317,1.2,1.2,0,0,0,.258-.781Z" transform="translate(714.969 3360.381)"/><path class="b" d="M-637.143-3353.654h-1.4v-4.887h1.321v.91q.3-1.016,1.055-1.016.106,0,.261.014v1.423a1.427,1.427,0,0,0-.685.135.98.98,0,0,0-.4.486,2.384,2.384,0,0,0-.155.946Z" transform="translate(700.12 3360.393)"/><path class="b" d="M-624.636-3364.975v1.441h-1.442v-1.441Zm0,1.853v4.886h-1.442v-4.886Z" transform="translate(691.097 3364.975)"/><path class="b" d="M-615.271-3358.63a2.173,2.173,0,0,1,1.742.73,2.714,2.714,0,0,1,.626,1.829,2.6,2.6,0,0,1-.65,1.807,2.21,2.21,0,0,1-1.728.723,2.108,2.108,0,0,1-1.67-.716,2.691,2.691,0,0,1-.626-1.838,2.846,2.846,0,0,1,.283-1.323,2.348,2.348,0,0,1,.776-.878A2.173,2.173,0,0,1-615.271-3358.63Zm.039.944a.69.69,0,0,0-.618.317,2.566,2.566,0,0,0-.207,1.26,2.862,2.862,0,0,0,.2,1.243.653.653,0,0,0,.618.377.7.7,0,0,0,.593-.322,2.305,2.305,0,0,0,.227-1.227,2.9,2.9,0,0,0-.2-1.306A.66.66,0,0,0-615.232-3357.686Z" transform="translate(684.941 3360.381)"/><path class="b" d="M-586.584-3364.485v6.6h-1.543v-6.6Z" transform="translate(663.62 3364.62)"/><path class="b" d="M-574.39-3360.359a1.9,1.9,0,0,0-.382-.049.5.5,0,0,0-.561.426,1.312,1.312,0,0,1,.392.929,1.289,1.289,0,0,1-.578,1.1,2.855,2.855,0,0,1-1.667.411,3.819,3.819,0,0,1-.755-.073.427.427,0,0,0-.246.373.323.323,0,0,0,.208.334,4.147,4.147,0,0,0,1,.121,13.219,13.219,0,0,1,1.553.14,1.28,1.28,0,0,1,.716.4,1.112,1.112,0,0,1,.29.784,1.379,1.379,0,0,1-.622,1.137,3.833,3.833,0,0,1-2.2.464,4.214,4.214,0,0,1-2-.322.946.946,0,0,1-.518-.817q0-.653.837-.881a.956.956,0,0,1-.619-.871q0-.7.977-1.093a1.229,1.229,0,0,1-.866-1.195,1.3,1.3,0,0,1,.6-1.106,2.806,2.806,0,0,1,1.652-.426,3.968,3.968,0,0,1,1.292.213,1.36,1.36,0,0,1,.245-.685,1.037,1.037,0,0,1,.854-.269,2.061,2.061,0,0,1,.406.039Zm-3.769,4.741a.381.381,0,0,0-.22.116.36.36,0,0,0-.133.281q0,.328.421.411a5.238,5.238,0,0,0,.987.082,3.334,3.334,0,0,0,1.038-.111.381.381,0,0,0,.3-.358q0-.189-.249-.29a4.909,4.909,0,0,0-1.328-.1l-.29,0a2.732,2.732,0,0,1-.358-.015A.946.946,0,0,0-578.159-3355.618Zm.96-4.175a.806.806,0,0,0-.581.2.7.7,0,0,0-.21.53q0,.745.8.745a.823.823,0,0,0,.605-.218.717.717,0,0,0,.219-.528.725.725,0,0,0-.207-.51A.817.817,0,0,0-577.2-3359.793Z" transform="translate(657.566 3362.323)"/><path class="b" d="M-554.464-3355.843h-3.145c0,.087,0,.163,0,.228a1.041,1.041,0,0,0,.278.788.928.928,0,0,0,.665.266.82.82,0,0,0,.866-.769l1.306.1a2.174,2.174,0,0,1-2.221,1.694,2.458,2.458,0,0,1-1.241-.293,2.314,2.314,0,0,1-.842-.854,2.6,2.6,0,0,1-.331-1.345,2.654,2.654,0,0,1,.665-1.882,2.23,2.23,0,0,1,1.71-.716,2.222,2.222,0,0,1,1.618.666A2.876,2.876,0,0,1-554.464-3355.843Zm-3.15-.837h1.737q-.068-1.006-.827-1.006Q-557.517-3357.686-557.614-3356.68Z" transform="translate(642.629 3360.381)"/><path class="b" d="M-535.433-3353.641h-1.4a3.474,3.474,0,0,1-.068-.765,2.007,2.007,0,0,1-.732.694,1.915,1.915,0,0,1-.829.172,1.615,1.615,0,0,1-1.109-.373,1.267,1.267,0,0,1-.423-1,1.547,1.547,0,0,1,.246-.847,1.612,1.612,0,0,1,.792-.607,7.555,7.555,0,0,1,1.99-.327v-.281a.627.627,0,0,0-.709-.711.746.746,0,0,0-.844.711l-1.33-.125a1.512,1.512,0,0,1,.789-1.181,3.139,3.139,0,0,1,1.49-.348,3.67,3.67,0,0,1,.939.116,1.566,1.566,0,0,1,.687.348,1.219,1.219,0,0,1,.334.491,3.209,3.209,0,0,1,.087.9v2.216A3.365,3.365,0,0,0-535.433-3353.641Zm-1.529-2.342q-1.509.15-1.509.915a.659.659,0,0,0,.159.443.563.563,0,0,0,.453.186.793.793,0,0,0,.639-.317,1.2,1.2,0,0,0,.258-.781Z" transform="translate(628.77 3360.381)"/><path class="b" d="M-510.261-3364.485h3.077a2.942,2.942,0,0,1,1.243.2,1.817,1.817,0,0,1,.687.58,1.534,1.534,0,0,1,.271.918,1.457,1.457,0,0,1-1.19,1.465,1.689,1.689,0,0,1,1.031.615,1.637,1.637,0,0,1,.343,1,1.719,1.719,0,0,1-.561,1.281,2.573,2.573,0,0,1-1.824.54h-3.077Zm1.543,1.166v1.446h1.171q.643,0,.81-.254a.892.892,0,0,0,.167-.486.694.694,0,0,0-.138-.433.587.587,0,0,0-.3-.228,2.911,2.911,0,0,0-.648-.046Zm0,2.622v1.592h1.188a1.34,1.34,0,0,0,.859-.213.737.737,0,0,0,.251-.595.74.74,0,0,0-.242-.552,1.134,1.134,0,0,0-.8-.232Z" transform="translate(607.245 3364.62)"/><path class="b" d="M-483.634-3353.641h-1.4a3.478,3.478,0,0,1-.068-.765,2.007,2.007,0,0,1-.732.694,1.914,1.914,0,0,1-.828.172,1.615,1.615,0,0,1-1.109-.373,1.267,1.267,0,0,1-.422-1,1.546,1.546,0,0,1,.246-.847,1.611,1.611,0,0,1,.792-.607,7.554,7.554,0,0,1,1.99-.327v-.281a.628.628,0,0,0-.709-.711.745.745,0,0,0-.844.711l-1.331-.125a1.513,1.513,0,0,1,.789-1.181,3.14,3.14,0,0,1,1.49-.348,3.668,3.668,0,0,1,.939.116,1.564,1.564,0,0,1,.687.348,1.219,1.219,0,0,1,.334.491,3.209,3.209,0,0,1,.087.9v2.216A3.361,3.361,0,0,0-483.634-3353.641Zm-1.529-2.342q-1.51.15-1.51.915a.659.659,0,0,0,.159.443.563.563,0,0,0,.453.186.794.794,0,0,0,.639-.317,1.2,1.2,0,0,0,.258-.781Z" transform="translate(591.267 3360.381)"/><path class="b" d="M-463.434-3353.641h-1.442v-2.743a3.9,3.9,0,0,0-.039-.682.549.549,0,0,0-.188-.312.56.56,0,0,0-.378-.128q-.759,0-.76,1.123v2.743h-1.442v-4.887h1.34v.827a1.871,1.871,0,0,1,.658-.76,1.5,1.5,0,0,1,.7-.169,1.636,1.636,0,0,1,1.122.375,1.941,1.941,0,0,1,.426,1.473Z" transform="translate(576.418 3360.381)"/><path class="b" d="M-444.419-3355.475a2.058,2.058,0,0,1-.685,1.4,2.256,2.256,0,0,1-1.556.535,2.222,2.222,0,0,1-1.686-.685,2.549,2.549,0,0,1-.651-1.831,2.619,2.619,0,0,1,.665-1.86,2.314,2.314,0,0,1,1.778-.714,2.115,2.115,0,0,1,1.483.537,1.965,1.965,0,0,1,.651,1.345l-1.345.078q-.068-.881-.764-.881-.857,0-.856,1.4a1.9,1.9,0,0,0,.24,1.185.775.775,0,0,0,.583.251q.668,0,.8-.847Z" transform="translate(562.89 3360.381)"/><path class="b" d="M-426.12-3353.641h-1.4a3.478,3.478,0,0,1-.068-.765,2.007,2.007,0,0,1-.732.694,1.915,1.915,0,0,1-.828.172,1.615,1.615,0,0,1-1.109-.373,1.267,1.267,0,0,1-.423-1,1.546,1.546,0,0,1,.246-.847,1.611,1.611,0,0,1,.792-.607,7.554,7.554,0,0,1,1.99-.327v-.281a.627.627,0,0,0-.709-.711.746.746,0,0,0-.844.711l-1.33-.125a1.512,1.512,0,0,1,.789-1.181,3.139,3.139,0,0,1,1.49-.348,3.67,3.67,0,0,1,.939.116,1.565,1.565,0,0,1,.687.348,1.219,1.219,0,0,1,.334.491,3.209,3.209,0,0,1,.087.9v2.216A3.364,3.364,0,0,0-426.12-3353.641Zm-1.529-2.342q-1.51.15-1.509.915a.659.659,0,0,0,.159.443.563.563,0,0,0,.453.186.793.793,0,0,0,.639-.317,1.2,1.2,0,0,0,.258-.781Z" transform="translate(549.627 3360.381)"/></g></g></svg>