<svg xmlns="http://www.w3.org/2000/svg" width="44" height="44" viewBox="0 0 44 44"><defs><style>.a{opacity:0.75;}.b,.c{fill:#fff;}.c{opacity:0;}</style></defs><g class="a" transform="translate(4898 -3152)"><path class="b" d="M931.6,1171.99c-5.916,0-13.035,0-15.083,0a3.3,3.3,0,0,1-3.4-3.405c0-1.048,0-3.689,0-7.054,0-9.18.009-23.053-.03-25.866a3.55,3.55,0,0,1,3.6-3.672h.056c1.448.02,9.925.022,13.5.022h1.341a3.359,3.359,0,0,1,3.649,3.65c0,.061.012,6.1-.01,8.76a1.839,1.839,0,0,0,.6,1.477c.249.241.835.829,1.515,1.509,1.1,1.1,2.475,2.479,3.026,3a10.438,10.438,0,0,1,3.253,10.517c-.37,1.717-1.261,6.136-1.74,8.511-.145.719-.255,1.266-.307,1.521-.172.842-.413,1.035-1.293,1.036Zm-1.116-20.293a1.583,1.583,0,0,0-.956.318,1.53,1.53,0,0,0-.524,1.751,2.827,2.827,0,0,0,.588.829c.428.448,1.5,1.562,2.574,2.681s2.184,2.272,2.62,2.728a1.241,1.241,0,0,1,.455.966c-.042.288-.289.565-.735.822-3.233,1.863-3.98,4.963-4.306,8.036l-.027.255h.128c.076,0,7.667,0,8.9.009.621,0,.7-.421.752-.7l.015-.079.055-.276c.577-2.888,1.173-5.874,1.782-8.833a8.035,8.035,0,0,0-1.771-7.349c-.747-.835-2.852-2.879-3.863-3.861-.256-.248-.449-.436-.543-.529l-.393-.388v.552c0,.326.008.641.015.946a14.742,14.742,0,0,1-.033,1.888,2.993,2.993,0,0,0,1.177,2.861,20.5,20.5,0,0,1,1.842,1.808l.374.4a.915.915,0,0,1,.124,1.165.946.946,0,0,1-.771.438.763.763,0,0,1-.262-.046,1.969,1.969,0,0,1-.675-.476c-1.15-1.146-5.117-5.14-5.156-5.18a3.78,3.78,0,0,0-.52-.467A1.5,1.5,0,0,0,930.481,1151.7Zm-15.468,15.313s0,1,0,1.248c.006,1.364.465,1.824,1.822,1.825h11.393l.428-3.188H915.013Zm9.134-33.091q-3.809,0-7.618.006a1.4,1.4,0,0,0-1.513,1.489c0,.1,0,.2,0,.3v29.234h.115c.114,0,11.417,0,13.149.018h.031a1.51,1.51,0,0,0,1.5-.884,17.584,17.584,0,0,1,1.5-2.114l.024-.031.289-.368a4.157,4.157,0,0,1,.57-.559c.1-.084.207-.179.313-.278l.17-.159-.354-.373c-.136-.143-.259-.273-.383-.4l-.448-.464c-.91-.942-2.805-2.9-3.541-3.689a3.474,3.474,0,0,1,2.489-5.862,3.369,3.369,0,0,1,.8.1,5.741,5.741,0,0,1,1.175.486c.181.09.383.191.585.282l.324.144v-4.09c0-3.705,0-7.536-.008-11.308a1.407,1.407,0,0,0-1.552-1.468Q927.956,1133.919,924.147,1133.919Z" transform="translate(-5804.081 2022.01)"/><rect class="c" width="44" height="44" transform="translate(-4898 3152)"/></g></svg>