<svg xmlns="http://www.w3.org/2000/svg" width="44" height="44" viewBox="0 0 44 44"><defs><style>.a,.b{fill:#fff;}.a{opacity:0;}</style></defs><g transform="translate(4992 -3092)"><rect class="a" width="44" height="44" transform="translate(-4992 3092)"/><path class="b" d="M71.655,830.607a1.262,1.262,0,0,1-.941-.427c-.323-.328-.572-.768-.219-1.755.427-1.2.822-2.4,1.2-3.567l.024-.074c.264-.807.563-1.722.869-2.609a3.152,3.152,0,0,0-.167-2.583,19.547,19.547,0,0,1-.183-17.315,20.011,20.011,0,0,1,38.021,9.982,20.08,20.08,0,0,1-16.846,18.115,21.966,21.966,0,0,1-3.088.223,20.21,20.21,0,0,1-8.923-2.07,3.262,3.262,0,0,0-2.72-.169c-1,.353-2.021.685-3.008,1.005-1.016.33-2.148.7-3.237,1.086A2.4,2.4,0,0,1,71.655,830.607Zm8.384-5.481a4.512,4.512,0,0,1,2.147.643,16.941,16.941,0,0,0,8.112,2.065A17.151,17.151,0,0,0,107.47,812.3a16.556,16.556,0,0,0-4.321-12.843A17.419,17.419,0,0,0,90.309,793.7a16.885,16.885,0,0,0-5.358.878,16.931,16.931,0,0,0-9.563,24.61,2.7,2.7,0,0,1,.27,2.558c-.3.734-.517,1.461-.771,2.3l-.023.076c-.109.362-.224.742-.354,1.147l-.26.813a.469.469,0,0,0,.589.59l.813-.259c.363-.115.7-.212,1.008-.3a14.044,14.044,0,0,0,1.851-.629A3.7,3.7,0,0,1,80.039,825.126Z" transform="translate(-5060.31 2303.292)"/></g></svg>