<svg xmlns="http://www.w3.org/2000/svg" width="44" height="44" viewBox="0 0 44 44"><defs><style>.a{opacity:0.75;}.b,.c{fill:#fff;}.b{opacity:0;}</style></defs><g class="a" transform="translate(4981 -3154)"><rect class="b" width="44" height="44" transform="translate(-4981 3154)"/><path class="c" d="M305.842,1054.537a3.661,3.661,0,0,1-2.85-1,3.594,3.594,0,0,1-.972-2.642c.01-3.576.053-20.927-.019-22.823a3.789,3.789,0,0,1,.987-2.814,3.84,3.84,0,0,1,2.853-1.078h.082c1.95.027,28.964.021,32.133.029a5.589,5.589,0,0,1,1.568.167,3.2,3.2,0,0,1,2.349,2.83,3.517,3.517,0,0,1,.023.512s0,16.568,0,23.215a3.345,3.345,0,0,1-2.433,3.458,5.825,5.825,0,0,1-1.426.138c-5.421,0-26.956.007-32.288.01Zm-.278-1.953h32.873l-11.753-11.753s-2.868,2.9-3.743,3.765a1.271,1.271,0,0,1-.849.457,1.311,1.311,0,0,1-.867-.465c-.666-.652-3.88-3.786-3.88-3.786Zm22.8-13.164,11.674,11.675v-23.349Zm-24.39,11.651,11.669-11.67-11.669-11.976Zm17.97-8.446,16.489-16.477h-33.1Z" transform="translate(-5280.997 2136.823)"/></g></svg>