<svg xmlns="http://www.w3.org/2000/svg" width="107.536" height="107.504" viewBox="0 0 107.536 107.504"><defs><style>.a{fill:#fff;}</style></defs><g transform="translate(-906.232 -220.496)"><path class="a" d="M957.8,220.539a53.753,53.753,0,1,0,55.914,51.343A53.817,53.817,0,0,0,957.8,220.539Zm2.237,106.068a52.364,52.364,0,1,1,52.34-51.865A52.4,52.4,0,0,1,960.041,326.607Z"/><path class="a" d="M960.045,304.92a30.662,30.662,0,1,0-30.666-29.948A30.68,30.68,0,0,0,960.045,304.92ZM985.1,266.894a10.083,10.083,0,0,0,.261-2.027c.107-1.31.189-2.622.3-4.2,7.009,11.612,4.114,31.511-13.116,39.957-.415-1.477-1.469-1.918-2.925-1.943a3.2,3.2,0,0,1-3.144-2.837,1.029,1.029,0,0,1,.719-1.38,14.518,14.518,0,0,0,7.212-6.2,11.826,11.826,0,0,0,1.534-4.554c.055-.476.153-.946.232-1.417,1.765.231,1.757.233,2.212,1.864a9.29,9.29,0,0,0,.548,1.6,2.059,2.059,0,0,0,2.267,1.232,1.9,1.9,0,0,0,1.529-2.148c0-2.826-.027-5.653-.031-8.48,0-.484.045-.969.086-1.451.129-1.506-.488-2.486-1.671-2.64-1.16-.15-1.968.54-2.3,1.968a2.735,2.735,0,0,1-3.113,2.394,1.01,1.01,0,0,1-.754-.4,11.99,11.99,0,0,0-6.874-6.147,10.044,10.044,0,0,0,4.351-7.7c2.527.251,4.853.48,7.178.714a1.18,1.18,0,0,1,1.1.961c.194.823.349,1.656.507,2.487a1.945,1.945,0,0,0,1.733,1.754A2.026,2.026,0,0,0,985.1,266.894Zm-14.592,33.953H955.972a4.465,4.465,0,0,1,.836-.417,3.989,3.989,0,0,0,3.547-3.96c.03-.47.17-.728.7-.777,1.16-.108,2.313-.276,3.381-.408a13.342,13.342,0,0,0,1.138,2.893,5.793,5.793,0,0,0,2.174,1.813C968.584,300.4,969.6,300.437,970.505,300.847Zm10.341-18.311a10.416,10.416,0,0,1,.065,2.6l-.34.036c-.189-.639-.4-1.272-.564-1.916a3.163,3.163,0,0,0-2.654-2.607c-1.651-.312-1.649-.381-1.649-1.971a12.631,12.631,0,0,0,3.414-1.49c.838-.718,1.213-1.976,1.933-3.244-.053,1.092-.1,2.006-.14,2.919s-.109,1.849-.118,2.773C980.784,280.6,980.862,281.571,980.846,282.536Zm2.55-16.085-.287.017a5.242,5.242,0,0,1-.2-.585c-.166-.748-.3-1.5-.478-2.247a2.8,2.8,0,0,0-2.638-2.287,63.381,63.381,0,0,0-12.451-.546c-2.025.169-2.636.8-2.658,2.808a14.606,14.606,0,0,0,.014,2.061,2.2,2.2,0,0,1-1.414,2.417,24.12,24.12,0,0,1-2.618.939c-.114-1.712-.167-3.2-.332-4.677a7.456,7.456,0,0,0-.579-2.084,3.713,3.713,0,0,0-3.189-2.451c-.592-.058-1.176-.189-1.764-.287l-.024-.29a8.532,8.532,0,0,1,1.256-.13c1.816.075,3.632.279,5.446.264,6.586-.055,13.172-.167,19.757-.289.952-.017,1.9-.2,2.94-.318C983.907,261.428,983.651,263.94,983.4,266.451Zm-30.543-6.835a2.606,2.606,0,0,0,2.539,1.794c2.218.242,3.08,1.169,3.247,3.426.1,1.284.017,2.581.017,3.963h-5.8Zm-.021-.7c0-1.068-.017-2.136.007-3.2.012-.505.141-.919.795-1a11.33,11.33,0,0,1,9.324,2.9c-1.342,0-2.437.039-3.528-.01-1.164-.053-2.322-.22-3.486-.282A2.829,2.829,0,0,0,952.832,258.913Zm30.658-1.868c-1.022.122-1.965.291-2.913.338-2.661.131-5.326.205-7.989.32-.475.021-.812-.005-1.06-.529-1.5-3.172-4.2-4.932-7.4-5.988a26.7,26.7,0,0,0-9.685-1.108c-3.612.165-7.226.273-10.838.4C954.659,241.763,973.8,243.322,983.49,257.045ZM942.9,252.068c4.685-.094,9.369-.186,14.054-.246a19.4,19.4,0,0,1,7.462,1.333,9.868,9.868,0,0,1,5.514,4.765c-1.49,0-2.836.023-4.179-.023-.214-.007-.451-.292-.62-.5-2.928-3.533-6.789-4.773-11.223-4.508-2.056.122-2.8.958-2.814,3.019-.025,4.288-.015,8.575,0,12.863,0,1.417.379,1.8,1.8,1.809,2.265.023,4.53.025,6.795-.007a10.7,10.7,0,0,0,2.037-.251,6.336,6.336,0,0,0,5.42-6.465c.014-.443,0-.886,0-1.466H970.6a7.455,7.455,0,0,1-2.717,5.521c-.79.683-1.711,1.214-2.539,1.857-.258.2-.594.569-.558.81.039.258.441.541.745.662.558.222,1.164.322,1.744.493a10.1,10.1,0,0,1,6.975,8.593c.738,7.224-4.391,11.808-9.936,13.288a25.343,25.343,0,0,1-7.59.462c-2.179-.082-4.355-.3-6.534-.334s-4.355.1-6.533.152c-.4.01-.79,0-1.184,0l-.066-.251a6.029,6.029,0,0,1,.766-.264,3.673,3.673,0,0,0,3.321-3.336,31.27,31.27,0,0,0,.447-4.7q.064-12.377.007-24.754a11.116,11.116,0,0,0-1.457-6.156,3.429,3.429,0,0,0-3.056-1.834,1.883,1.883,0,0,1-.452-.113l-.031-.217A4.756,4.756,0,0,1,942.9,252.068Zm-2.773.847a1.764,1.764,0,0,0,2.059,1.435,2.021,2.021,0,0,1,1.91,1.213,8.957,8.957,0,0,1,1.054,4.667q.033,12.742-.006,25.485a28.22,28.22,0,0,1-.358,3.853c-.2,1.393-.7,1.826-2.093,2.123a4.317,4.317,0,0,0-1.246.429,1.732,1.732,0,0,0-.865,1.858,1.761,1.761,0,0,0,1.432,1.6,4.173,4.173,0,0,0,1.443.1c3.752-.567,7.5-.106,11.245.022,1.287.044,2.573.119,3.926.182-.245,2.038-.51,2.358-2.235,2.829-1.567.428-2.282,1.233-2.093,2.358s1.038,1.6,2.734,1.568c2.824-.061,5.649-.1,8.473-.139.273,0,.548.044.98.082-9.505,2.688-23.7-.594-31.385-13.1A29.017,29.017,0,0,1,940.125,252.915Z"/><path class="a" d="M923.918,278.567c-.025-.764.022-1.53-.01-2.294a4.984,4.984,0,0,0-.237-.975,3.467,3.467,0,0,0-.618.72c-.423.907-.625,1.012-1.578.636a4.369,4.369,0,0,1-.87-.413c-.651-.443-.685-3.438-.063-3.935a1.949,1.949,0,0,1,2.959.278c.042.049.143.047.427.132.015-.443.059-.833.037-1.219a14.411,14.411,0,0,1,1.059-6.15.564.564,0,1,0-.722-.5,1.224,1.224,0,0,1-1.338.615c-1.929-.5-3.847-1.045-5.851-1.6.167-.22.182-.259.209-.272,2.932-1.333,5.868-2.657,8.792-4.007a10.11,10.11,0,0,0,1.281-.885c-.67-.249-1.035-.395-1.406-.521q-3.549-1.2-7.1-2.4c-.625-.21-1.216-.437-1.3-1.243-.018-.183-.239-.347-.366-.519-.187.172-.47.311-.543.522-.312.911-.593,1.836-.815,2.773a1.925,1.925,0,0,0,.145.806c.67-.492,1.183-1.187,1.713-1.2,1.864-.046,3.516.822,5.5,1.517-2.654,1.184-5.008,2.228-7.357,3.284-.714.321-1.609.411-1.875,1.349-.22.774-.437,1.55-.611,2.335a.549.549,0,0,0,.244.475.534.534,0,0,0,.491-.187c.687-1.393,1.8-1.1,2.918-.759,1.5.467,2.989.967,4.479,1.462.758.253,1.752.4,1.783,1.374s-.887,1.332-1.694,1.659q-3.807,1.545-7.6,3.127c-.489.205-.935.51-1.623.892.618.353.979.588,1.363.772,2.324,1.115,4.641,2.245,6.985,3.314a5.574,5.574,0,0,1,2.717,2.011C923.943,279.381,923.932,278.995,923.918,278.567Zm-4.987-3.017-3.148-1.446,3.148-1.243Z"/><path class="a" d="M923.447,279.544l0,0c.008.008.012.017.02.026l.007,0C923.464,279.563,923.454,279.556,923.447,279.544Z"/><path class="a" d="M1002.449,259.465c-2.155.67-4.3,1.381-6.447,2.066a1.257,1.257,0,0,1-1.45-.275,3.675,3.675,0,0,0-.857-.432c.17.655.262,1.054.376,1.447.429,1.472.93,2.928,1.275,4.419.224.972.2,2,.341,2.993.031.219.267.41.408.613.146-.195.4-.38.419-.587a1.422,1.422,0,0,1,1.38-1.419c1.86-.235,3.721-.46,5.866-.724-.331.379-.453.527-.584.668-2.059,2.224-4.127,4.44-6.174,6.676a12.975,12.975,0,0,0-.933,1.35,9.237,9.237,0,0,0,.977.056q3.987-.308,7.971-.631a1.561,1.561,0,0,1,1.7.638c.1.166.349.244.53.362.107-.231.319-.469.3-.693-.06-.922-.163-1.843-.306-2.756a3.54,3.54,0,0,0-.4-.879,3.05,3.05,0,0,0-.388.774,1.427,1.427,0,0,1-1.108,1.288,21.531,21.531,0,0,1-5.222.488c.221-.268.313-.393.42-.505q2.667-2.817,5.336-5.633c.438-.464.961-.885.855-1.646s-.155-1.526-.282-2.281c-.032-.193-.262-.354-.4-.53-.161.151-.458.3-.463.453-.043,1.359-1,1.66-2.056,1.762-1.968.191-3.94.355-5.915.458a1.619,1.619,0,0,1-1.766-1.45c-.184-1.121,0-1.548,1.131-1.933,2.211-.757,4.444-1.454,6.681-2.13.271-.081.632.1.941.193.27.082.526.212.789.32a3.076,3.076,0,0,0,.006-.908c-.352-1.152-.74-2.294-1.152-3.426-.07-.192-.323-.317-.646-.616a3.406,3.406,0,0,0-.2,1.023C1003.546,258.87,1003.178,259.239,1002.449,259.465Z"/><path class="a" d="M972.5,318.03c-.32-1.869-.657-3.737-.921-5.614-.12-.853-.343-1.817.859-2.216.133-.044.168-.387.248-.591a1.52,1.52,0,0,0-.536-.166c-.481.041-.955.183-1.434.2a1.2,1.2,0,0,0-1.239.941c-.112.387-.261.764-.386,1.147-.671,2.05-1.339,4.1-2.062,6.316-.344-.5-.6-.851-.83-1.218-1.086-1.749-2.178-3.495-3.236-5.261a1.347,1.347,0,0,0-1.605-.736c-.628.136-1.283.16-1.9.315-.21.052-.358.353-.535.54a2.2,2.2,0,0,0,.584.335c1.247.262,1.524.459,1.665,1.664.189,1.6.288,3.22.408,4.832a5.459,5.459,0,0,1,.017,1.8,6.229,6.229,0,0,1-1.007,1.536c.088.05.2.168.3.161,1.16-.08,2.32-.165,3.476-.29a.537.537,0,0,0,.312-.429c-.016-.145-.235-.284-.388-.394-.4-.293-1.047-.483-1.194-.868a11.633,11.633,0,0,1-.489-4.52c.778,1.03,1.422,2.093,2.079,3.147.491.788.962,1.591,1.509,2.339.427.585.711.523,1.016-.133a6.412,6.412,0,0,0,.236-.684l1.919-5.837.213-.041c.247,1.471.489,2.942.745,4.412.1.586.13,1.12-.477,1.491a.55.55,0,0,0-.2.486.574.574,0,0,0,.449.313c1.321-.141,2.64-.3,3.95-.513.207-.033.366-.355.547-.543-.19-.118-.376-.327-.572-.337C972.984,319.566,972.643,318.888,972.5,318.03Z"/><path class="a" d="M925.862,287.829c.021.023.14-.047.35-.124-.069-.35-.127-.731-.222-1.1-.269-1.053-.622-2.09-.816-3.157a7.879,7.879,0,0,0-1.71-3.873,4.1,4.1,0,0,0-3.6-.271,2.65,2.65,0,0,0-1.617,2.2,8.137,8.137,0,0,0-2.157-.36,2.449,2.449,0,0,0-2.144,3,63.494,63.494,0,0,0,1.611,6.545c.044.167.356.263.543.392a2.058,2.058,0,0,0,.29-.6c.156-1.246.256-1.392,1.448-1.7,1.677-.433,3.366-.822,5.035-1.282C923.927,287.208,924.953,286.865,925.862,287.829Zm-8.3-1.283c-.234.058-.471.106-.706.164-1.339.332-1.693.061-1.707-1.309a2.212,2.212,0,0,1,1.33-2.117c1.148-.495,1.832-.177,2.21,1.023.024.077.058.152.078.23C919.193,286.143,919.193,286.143,917.563,286.546Zm6.546-2.192c-.061.266-.482.536-.792.643-.758.261-1.557.4-2.323.643-.549.172-.866,0-.995-.526-.123-.506-.208-1.02-.31-1.531,0-1.219.285-1.789,1.168-2.2a2.2,2.2,0,0,1,2.475.3A2.887,2.887,0,0,1,924.109,284.354Z"/><path class="a" d="M943.856,307.185c-1.3-.538-2.582-1.118-3.887-1.642a2.663,2.663,0,0,0-.866-.039c.094.258.112.614.295.757a1.451,1.451,0,0,1,.359,2.035c-.677,1.416-1.3,2.858-1.964,4.279-.543,1.157-.734,2.634-2.59,2.658l.106.314a2.62,2.62,0,0,0,.527.431c1.1.5,2.2.984,3.321,1.435a1.918,1.918,0,0,0,.741-.03c-.079-.238-.085-.583-.25-.7-.739-.5-.639-1.147-.373-1.818.252-.635.584-1.24.821-1.881.2-.528.484-.532.933-.342.745.315.761.977.822,1.617.11,1.163.115,2.344.325,3.487a2.272,2.272,0,0,0,2.833,1.793.923.923,0,0,0,.52-.406c.047-.079-.124-.4-.256-.453-.843-.3-.98-.986-1.034-1.741-.062-.886-.1-1.776-.222-2.654-.081-.6.1-.827.7-.995a2.765,2.765,0,0,0,1.571-4.4A4.953,4.953,0,0,0,943.856,307.185Zm.094,4.721a1.577,1.577,0,0,1-1.188.311,11.524,11.524,0,0,1-1.917-.813c.488-1.093.924-2.073,1.362-3.052.21-.467.567-.506,1-.347A2.4,2.4,0,0,1,943.95,311.906Z"/><path class="a" d="M940.879,231.71a1.3,1.3,0,0,1,1.626,1.06c.658,2.117,1.33,4.229,1.973,6.35.15.494.292,1.013-.242,1.44-.131.1-.094.417-.134.635a1.877,1.877,0,0,0,.639.044q2.139-.636,4.264-1.32a5.905,5.905,0,0,0,3.871-3.564c1.251-3.112-.3-6.645-3.319-7.442a6.929,6.929,0,0,0-4.168.268c-1.514.545-3.04,1.059-4.547,1.624a3.063,3.063,0,0,0-.733.584l.182.291A2.442,2.442,0,0,0,940.879,231.71Zm4.139-1.344a4.158,4.158,0,0,1,4.815,1.211,6.117,6.117,0,0,1,1.377,3.67,3.552,3.552,0,0,1-3.1,3.825,1.27,1.27,0,0,1-1.584-.931c-.691-2.227-1.365-4.459-2.084-6.677C944.236,230.835,944.505,230.582,945.018,230.366Z"/><path class="a" d="M1000.543,277.069c-3.3-.075-5.638,2.424-5.673,6.054a6.085,6.085,0,0,0,6.2,5.845c3.055.05,5.355-2.465,5.416-5.923A5.743,5.743,0,0,0,1000.543,277.069Zm4.963,5.764a3.315,3.315,0,0,1-1.672,3.03,6.274,6.274,0,0,1-6.995-.788,3.065,3.065,0,0,1,.311-4.668,6.128,6.128,0,0,1,3.245-1.092c1.075.307,2.181.534,3.215.943A2.764,2.764,0,0,1,1005.506,282.833Z"/><path class="a" d="M953.13,310.133c-3.518-.017-5.828,2.374-5.955,5.938-.107,3,2,5.549,6.041,5.661,3.184.088,5.76-2.743,5.8-6.209C959.054,312.386,956.61,310.149,953.13,310.133ZM955.1,319.9a3.043,3.043,0,0,1-4.692-.714,16.421,16.421,0,0,1-1.021-3,22.661,22.661,0,0,1,.917-3.252,3.018,3.018,0,0,1,5.172-.7C957.2,314.138,957.007,318.145,955.1,319.9Z"/><path class="a" d="M955.4,229.525q.1,2.966.2,5.929A2.218,2.218,0,0,1,954.265,238a4.953,4.953,0,0,0,1.121.352c1.653,0,3.306-.006,4.957-.074a4.454,4.454,0,0,0,1.746-.367,2.068,2.068,0,0,0,.823-2.972c-1.427,1.641-2.431,2.156-3.95,2.15-.6,0-.953-.244-1.005-.795a27.466,27.466,0,0,1-.116-2.78.792.792,0,0,1,.411-.6,1.854,1.854,0,0,1,2.516,1.09c.085.178.159.362.281.639a6.632,6.632,0,0,0,.011-4.393c-.079.007-.194-.015-.231.028-.2.24-.389.492-.573.745a2.486,2.486,0,0,1-2.3.615c-.418-.243-.465-3.321-.023-3.387a11.069,11.069,0,0,1,2.63-.055c.624.057.936.554.992,1.2.012.133.243.246.373.369.133-.167.369-.328.381-.5.032-.521-.039-1.047-.04-1.572,0-.635-.3-.817-.919-.79-2.217.1-4.437.146-6.655.228a12.208,12.208,0,0,0-1.274.2c.417.355.6.65.813.669C955.214,228.089,955.37,228.744,955.4,229.525Z"/><path class="a" d="M984.232,242.182a4,4,0,0,0-1.147,3.325,5.222,5.222,0,0,0,8.2,3.369,32.066,32.066,0,0,0,3.381-3.121,2.067,2.067,0,0,1,2.555-.779,4.181,4.181,0,0,0-.431-.917c-.623-.631-1.262-1.249-1.928-1.835a2.082,2.082,0,0,0-.706-.253c.021.249-.049.564.077.735a1.248,1.248,0,0,1-.018,1.763,47.473,47.473,0,0,1-4.027,3.838c-1.42,1.134-2.911.826-4.182-.576a2.733,2.733,0,0,1-.053-4.022c1.174-1.33,2.484-2.54,3.735-3.8a.966.966,0,0,1,1.185-.32c.2.089.5-.029.752-.053-.084-.253-.1-.576-.264-.748q-1.309-1.341-2.7-2.607c-.159-.145-.473-.122-.715-.177.011.25-.073.567.049.737a1.24,1.24,0,0,1-.292,1.892c-.4.343-.729.757-1.1,1.131C985.816,240.568,984.969,241.327,984.232,242.182Z"/><path class="a" d="M983.987,313.3q-3.153-2.74-6.34-5.441c-.414-.351-.879-.642-1.536-1.117,0,2.114.048,3.953-.012,5.787-.075,2.271.6,4.57-.235,6.815-.018.048.064.134.159.317,1.138-.522,2.287-1.036,3.416-1.59.1-.049.073-.358.106-.557a1.479,1.479,0,0,0-.391-.107c-1.671.068-1.863-.145-1.856-1.744,0-.716.43-.988.951-1.24a13.151,13.151,0,0,0,1.416-.677c.809-.522,1.337-.114,1.9.426.515.492,1.055.917.541,1.733-.1.165-.036.438-.048.662a2.6,2.6,0,0,0,.744-.1q1.591-.715,3.152-1.494a3.316,3.316,0,0,0,.6-.493c-.246-.145-.505-.43-.737-.409A2.353,2.353,0,0,1,983.987,313.3Zm-6.8.282V310.27c.867.755,1.612,1.4,2.465,2.147Z"/><path class="a" d="M931.281,248.231a11.858,11.858,0,0,1,.21,1.973,6.137,6.137,0,0,0,.142.648,2.458,2.458,0,0,0,.726-.274q1.027-.839,1.989-1.754a2.364,2.364,0,0,0,.351-.676,2.214,2.214,0,0,0-.835-.056c-1.078.38-1.29.3-1.69-.762-.444-1.185-.413-1.315.558-2.188a8.4,8.4,0,0,0,.908-.8c.638-.771,1.318-.6,2.041-.174.625.365,1.377.633.957,1.635-.061.147.143.4.225.611a3.039,3.039,0,0,0,.591-.309q1.385-1.163,2.743-2.36a4.8,4.8,0,0,0,.495-.628c-.308-.1-.579-.278-.723-.207-.941.47-1.728.01-2.525-.362-2.446-1.14-4.881-2.3-7.33-3.439-.45-.208-.941-.329-1.647-.57.091.511.107.711.163.9C929.516,242.368,930.43,245.291,931.281,248.231Zm2.072-5.244-2.027,1.79c-.358-1.1-.662-2.029-1.061-3.252Z"/><path class="a" d="M974.974,241.4c1.05.6,2.112,1.173,3.192,1.711.189.094.485-.026.731-.047-.057-.2-.049-.507-.183-.6-.962-.64-.724-1.427-.312-2.231a19.127,19.127,0,0,1,1.015-1.785.882.882,0,0,1,.641-.386,1.935,1.935,0,0,1,1.665,2.191,2.732,2.732,0,0,0,.075.539c.271-.1.593-.127.67-.276.54-1.048,1.029-2.122,1.534-3.188l-.288-.231c-.251.1-.51.184-.75.305a1.993,1.993,0,0,1-2.293-.4c-.536-.614.135-1.043.366-1.478,1.058-1.989,1.373-2.03,3.166-.556.522.43.936.9.568,1.664-.075.156.054.409.089.618.239-.092.581-.115.7-.289a10.934,10.934,0,0,0,.691-1.407c.267-.565.032-.862-.49-1.134-1.965-1.023-3.9-2.1-5.865-3.127a2.708,2.708,0,0,0-.846-.136c.079.276.072.655.254.809a1.113,1.113,0,0,1,.214,1.606c-1.144,2.04-2.253,4.1-3.429,6.121-.193.331-.649.513-.994.749-.2.139-.426.248-.639.37A2.523,2.523,0,0,0,974.974,241.4Z"/><path class="a" d="M928.149,256.328a5.609,5.609,0,0,0,2.816-6.55c-.132-.454-.111-1.136-.842-1.068a6.24,6.24,0,0,0-.1,1.273,2.965,2.965,0,0,0,.043.36,3.588,3.588,0,0,1-4.309,4.032,6.11,6.11,0,0,1-3.656-1.96c-1.926-2.047-1.2-4.72,1.536-5.4a14.59,14.59,0,0,1,2.622-.105,1.778,1.778,0,0,0,.593-.286c-.093-.169-.143-.413-.286-.5-.928-.54-1.877-1.045-2.7-1.495a6.244,6.244,0,0,1-1.087,1.22,5.626,5.626,0,0,0-1.493,8.726A5.78,5.78,0,0,0,928.149,256.328Z"/><path class="a" d="M995.219,248.707a5.465,5.465,0,0,0,.166,10.791,7.9,7.9,0,0,0,1.562-.08c-.3-.385-.331-.479-.393-.5-.41-.16-.827-.3-1.24-.454a3.538,3.538,0,0,1-2.027-5.359,5.955,5.955,0,0,1,3.446-2.693,3.149,3.149,0,0,1,4.223,4.065c-.255.751-.708,1.432-1.032,2.162a1.63,1.63,0,0,0,0,.638,1.488,1.488,0,0,0,.547-.077c.654-.395,1.289-.821,1.927-1.241.523-.345,1.207-.66.165-1.245-.134-.075-.146-.422-.162-.646C1002.122,250.082,999.091,247.818,995.219,248.707Z"/><path class="a" d="M963.56,238.227c.433.086.885.074,1.318.161,1.5.3,2.987.673,4.494.934a4.934,4.934,0,1,0,2.062-2.556,4.039,4.039,0,0,1-3.8,1.027c-.966-.146-1.112-.266-.936-1.258q.622-3.51,1.37-7c.067-.317.427-.585.682-.845a4.4,4.4,0,0,1,.6-.441,2.55,2.55,0,0,0-.731-.465q-1.766-.382-3.553-.657c-.223-.034-.48.157-.721.244.14.212.245.566.426.611,1.1.269,1.085,1.038.918,1.89-.387,1.977-.8,3.949-1.164,5.93-.137.739-.244,1.438-1.143,1.646a.523.523,0,0,0-.265.445A.66.66,0,0,0,963.56,238.227Z"/><path class="a" d="M926.825,298.442a2.33,2.33,0,0,0-2.414,2.429,2.415,2.415,0,0,0,2.427,2.459,2.446,2.446,0,0,0,2.43-2.467A2.368,2.368,0,0,0,926.825,298.442Z"/><path class="a" d="M992.618,299.176a2.444,2.444,0,0,0-.157,4.885,2.444,2.444,0,1,0,.157-4.885Z"/><path class="a" d="M953.786,292.624a21.326,21.326,0,0,0,7.947.43c3.579-.4,6.45-2,7.936-5.5a11.271,11.271,0,0,0,.772-4.744,10.519,10.519,0,0,0-9.5-10.606c-2.816-.2-5.654-.147-8.481-.122-1.1.009-1.368.4-1.374,1.554-.015,2.548-.005,5.1-.005,7.643h-.078c0,2.547.007,5.093,0,7.64A3.335,3.335,0,0,0,953.786,292.624Zm12.691-3.487v-7.06l2.086-.14C968.818,284.6,968.538,287,966.477,289.137Zm-5.831-15.591c1.15.4,2.2.772,3.253,1.133.632.217.8.648.8,1.3,0,2.308.106,2.387,2.443,2.545.785.053.88.185,1.175,1.669-.681.055-1.365.064-2.032.174-1.258.209-1.578.569-1.593,1.856-.028,2.384-.008,4.769-.01,7.153,0,1.286.006,1.32-1.22,1.657-.886.243-1.8.381-2.816.589Zm-7.859,14.72q.015-6.666.037-13.333c0-1.176.007-1.181,1.2-1.184,1.527-.005,3.054,0,4.694,0V291.4a10.851,10.851,0,0,1-5.048-.741,2.222,2.222,0,0,1-.824-1.195A3.462,3.462,0,0,1,952.787,288.266Z"/></g></svg>