<svg xmlns="http://www.w3.org/2000/svg" width="21" height="21.006" viewBox="0 0 21 21.006"><defs><style>.a{fill:#fff;}</style></defs><g transform="translate(772.08 -838.042)"><path class="a" d="M-761.992,857.456a9.025,9.025,0,0,0,9.329-8.592,3.524,3.524,0,0,1,.028-.436.775.775,0,0,1,.817-.675.756.756,0,0,1,.737.759,13.541,13.541,0,0,1-.2,2.061,10.463,10.463,0,0,1-8.241,8.266,10.515,10.515,0,0,1-11.326-5.384,10.42,10.42,0,0,1,2.153-12.611,10.2,10.2,0,0,1,7.041-2.8.79.79,0,0,1,.775,1.162.883.883,0,0,1-.792.426,12.16,12.16,0,0,0-1.91.238,8.649,8.649,0,0,0-6.651,6.628,8.422,8.422,0,0,0,1.71,7.607A8.535,8.535,0,0,0-761.992,857.456Z"/><path class="a" d="M-698.736,883.959c1.379-1.391,2.7-2.732,4.03-4.065q2.666-2.671,5.341-5.331a.944.944,0,0,1,.69-.356.759.759,0,0,1,.685.409.735.735,0,0,1-.023.795,1.842,1.842,0,0,1-.26.3q-4.89,4.88-9.783,9.758c-.043.043-.085.087-.13.127a.765.765,0,0,1-1.162-.035c-.57-.6-1.125-1.21-1.685-1.817-.733-.8-1.468-1.588-2.193-2.391a1.219,1.219,0,0,1-.27-.462.754.754,0,0,1,.353-.847.77.77,0,0,1,.943.107c.287.279.551.583.823.877q1.211,1.313,2.418,2.629C-698.887,883.74-698.829,883.834-698.736,883.959Z" transform="translate(-63.556 -33.527)"/></g></svg>